<svg width="240" height="80" viewBox="0 0 240 80" fill="none" xmlns="http://www.w3.org/2000/svg">
<rect width="240" height="80" fill="#AD1922"/>
<g clip-path="url(#clip0_3956_440)">
<path d="M173.416 19.5081C170.196 20.3856 169.552 20.6953 168.289 21.9084C166.538 23.6118 166.512 23.7925 166.512 37.6263V49.9631H169.346H172.179V42.4784C172.179 33.5484 171.973 34.1162 175.373 33.8323L177.615 33.6516L177.537 31.2772L177.46 28.9285L175.064 28.7995C173.338 28.6962 172.591 28.5672 172.411 28.2833C172.05 27.7413 172.282 25.7282 172.772 25.2636C172.978 25.0571 174.369 24.3861 175.837 23.7925L178.516 22.7085L178.027 20.7211C177.434 18.3467 177.589 18.3983 173.416 19.5081Z" fill="white"/>
<path d="M49.8192 20.1792C49.4586 20.2308 48.2994 20.4114 47.2432 20.5663C44.5126 20.9534 41.3184 21.831 40.4683 22.3988C39.4122 23.1472 39 24.1796 39 26.0121C39 28.3091 39.0773 28.3607 41.0608 27.7413C49.304 25.1346 60.5869 25.0829 64.8888 27.6123C67.6709 29.2641 68.7528 31.5353 68.5725 35.4583C68.4437 38.4006 67.8512 39.9233 66.151 41.6009C64.3994 43.356 62.8022 43.8205 57.8821 43.9754L53.6832 44.1044V35.2518V26.3992L52.6013 26.5799C51.983 26.6831 50.8496 27.0703 50.0768 27.4574C48.9434 27.9994 48.5312 28.3865 48.0933 29.3157C47.5008 30.4513 47.5008 30.6061 47.5008 40.233V50.0148L55.5637 49.9115C63.1114 49.8083 63.7038 49.7825 65.404 49.2147C69.2165 47.9758 71.8955 45.782 73.5699 42.5817C74.8322 40.1556 75.3216 38.0392 75.3216 34.7356C75.3216 24.5409 68.9074 19.9469 54.8424 20.0501C52.4467 20.0759 50.1798 20.1275 49.8192 20.1792Z" fill="white"/>
<path d="M122.076 27.3026C119.68 28.5414 119.397 28.6446 117.954 28.5414C113.73 28.3091 111.283 28.4382 109.866 29.0318C106.852 30.2706 104.688 32.4902 103.606 35.4067C102.808 37.5747 102.808 41.4977 103.606 43.5108C104.843 46.6079 107.47 49.034 110.69 50.0148C112.081 50.4277 112.931 50.531 114.94 50.4277C117.156 50.3503 117.671 50.2213 119.371 49.4212C122.772 47.7952 124.987 44.8529 125.605 41.1106C125.94 38.9942 125.605 36.5681 124.626 34.5034C124.291 33.7549 124.008 32.9548 124.008 32.7483C124.008 32.3354 125.554 30.8126 126.661 30.1416C127.048 29.9093 127.357 29.5738 127.357 29.3673C127.357 28.8511 125.322 25.9605 124.961 25.9863C124.781 25.9863 123.493 26.5799 122.076 27.3026ZM115.971 34.3743C119.088 35.6648 120.35 39.8201 118.444 42.5301C115.816 46.2724 110.123 45.111 109.067 40.6202C108.063 36.4649 112.133 32.7483 115.971 34.3743Z" fill="white"/>
<path d="M136.244 28.0252C133.179 28.9285 130.525 30.219 129.856 31.1481C129.031 32.2837 128.902 33.6258 128.902 41.8848V49.9631H131.736H134.544L134.621 42.3236L134.698 34.684L135.445 34.0904C135.858 33.7549 137.171 33.1096 138.356 32.6451C140.52 31.8192 140.52 31.8192 140.34 31.0191C139.979 29.3415 139.309 27.4058 139.078 27.3541C138.923 27.3025 137.661 27.6122 136.244 28.0252Z" fill="white"/>
<path d="M84.9301 28.7737C82.2768 29.677 80.3963 31.4321 79.1341 34.1163C76.4035 40.0008 78.6446 47.0984 84.08 49.6793C85.3165 50.2729 85.8317 50.3503 88.2016 50.3503C90.8549 50.3503 90.9579 50.3245 92.6581 49.3696C93.6112 48.8534 94.5385 48.4146 94.7189 48.4146C94.8992 48.4146 95.5432 48.776 96.1614 49.1889C97.0373 49.7825 97.5782 49.9632 98.5571 49.9632H99.7936V39.3814V28.7995H98.6859C97.8873 28.7995 97.2176 29.0318 96.3675 29.5738C95.6977 29.9868 94.9507 30.3481 94.7189 30.3481C94.487 30.3481 93.7657 30.0126 93.1217 29.6254C92.4777 29.2125 91.5504 28.7479 91.0609 28.5931C89.7472 28.1285 86.4757 28.2317 84.9301 28.7737ZM91.4731 34.4002C95.3113 36.181 95.3113 42.5559 91.4473 44.311C87.8409 45.9628 84.08 43.3818 84.08 39.2781C84.1057 35.2261 87.8667 32.7484 91.4731 34.4002Z" fill="white"/>
<path d="M148.738 28.6447C144.307 29.8835 141.345 33.2646 140.778 37.7296C139.876 44.9304 144.693 50.5052 151.777 50.4794C155.384 50.4536 157.934 49.4728 160.175 47.2274C166.177 41.2138 163.318 30.8385 155.049 28.6705C153.246 28.2059 150.361 28.2059 148.738 28.6447ZM154.74 34.8906C158.192 37.2908 157.676 42.7882 153.838 44.4142C149.304 46.2983 145.157 41.188 147.501 36.6714C148.892 34.0388 152.293 33.1871 154.74 34.8906Z" fill="white"/>
<path d="M185.162 28.7479C182.38 29.7287 180.01 32.1806 179.006 35.1228C178.413 36.8521 178.233 40.1815 178.593 42.0139C179.289 45.3949 181.53 48.2856 184.492 49.6535C185.755 50.2471 186.296 50.3503 188.434 50.3503C190.804 50.3503 191.01 50.2987 192.761 49.3954C193.792 48.8534 194.796 48.4146 195.003 48.4146C195.209 48.4146 195.827 48.7244 196.394 49.0857C197.038 49.5244 197.939 49.8342 198.712 49.9116L200 50.0406V39.4072V28.7995H198.892C198.094 28.7995 197.424 29.0318 196.574 29.5738C195.904 29.9868 195.183 30.3481 194.977 30.3481C194.771 30.3481 193.818 29.9093 192.864 29.3932C191.267 28.5156 190.932 28.4124 188.794 28.3608C187.043 28.2833 186.141 28.3866 185.162 28.7479ZM192.195 34.6324C195.157 36.3359 195.647 40.8525 193.122 43.3044C191.963 44.44 191.087 44.8013 189.567 44.8013C188.15 44.8013 187.197 44.44 186.27 43.5625C183.05 40.517 184.338 34.9422 188.459 33.9614C189.644 33.6775 190.932 33.9098 192.195 34.6324Z" fill="white"/>
<path d="M103.812 50.9181C102.086 53.5507 102.524 56.9059 104.894 59.0481C106.156 60.2095 106.543 60.3127 112.674 61.4484C121.046 62.9969 122.797 63.6163 123.622 65.3456C124.188 66.5844 124.729 66.4038 125.605 64.7003C126.404 63.1776 126.532 61.6806 126.017 59.9256C125.631 58.6351 123.699 56.5962 122.437 56.2091C121.947 56.0542 118.959 55.4606 115.765 54.8928C107.058 53.3442 105.693 52.8022 105.28 50.6859C105.074 49.7051 104.559 49.7825 103.812 50.9181Z" fill="white"/>
</g>
<defs>
<clipPath id="clip0_3956_440">
<rect width="161" height="47.4892" fill="white" transform="translate(39 18.7339)"/>
</clipPath>
</defs>
</svg>
