<svg width="136" height="46" viewBox="0 0 136 46" fill="none" xmlns="http://www.w3.org/2000/svg">
<rect width="136" height="46" fill="#007EE5"/>
<path d="M53.6136 21.1608H53.6528C54.8022 21.1608 55.6382 22.036 55.7427 22.8981H51.4844C51.5628 22.036 52.3727 21.1608 53.6136 21.1608ZM53.6005 19.9722C51.615 19.9722 50.0476 21.5527 50.0476 23.5643C50.0476 25.3146 51.3799 27.1303 53.6136 27.1303C54.3189 27.1303 54.9851 26.9343 55.5337 26.5555C55.9648 26.2682 56.3305 25.8894 56.6048 25.4452C56.6832 25.3146 56.6832 25.1579 56.6179 25.0272C56.5395 24.8966 56.4089 24.8052 56.2521 24.8052H55.7427C55.599 24.8052 55.4684 24.8836 55.39 25.0011C54.9982 25.615 54.3973 25.9285 53.6266 25.9285C52.6339 25.9285 51.5497 25.2624 51.4583 24.0084H56.7224C56.9444 24.0084 57.1404 23.8255 57.1404 23.6035C57.1534 22.5846 56.8008 21.6703 56.1085 20.9649C55.4423 20.3248 54.554 19.9722 53.6005 19.9722ZM63.8805 23.512C63.9066 24.126 63.6845 24.7138 63.2535 25.1448C62.8224 25.5759 62.2477 25.824 61.6338 25.824C60.1577 25.824 59.374 24.6746 59.3609 23.5382V23.5251C59.3609 22.2319 60.3406 21.2523 61.6338 21.2523C62.2477 21.2523 62.8094 21.4743 63.2274 21.8923C63.6454 22.3234 63.8805 22.885 63.8805 23.512ZM64.7687 17.7646H64.2332C63.998 17.7646 63.8152 17.9606 63.8152 18.1826V21.1086C63.4886 20.6253 62.7049 19.9722 61.4248 19.9722C59.4654 19.9722 57.9894 21.5004 57.9894 23.5382C57.9894 25.615 59.4393 27.1303 61.4378 27.1303C62.8224 27.1303 63.5278 26.438 63.8544 25.9155V26.5033C63.8544 26.7384 64.0372 26.9213 64.2723 26.9213H64.7687C65.0038 26.9213 65.1867 26.7384 65.1867 26.5033V18.1826C65.1867 17.9475 64.9908 17.7646 64.7687 17.7646ZM74.3694 19.9722C73.6771 19.9722 73.0371 20.2203 72.5799 20.6906C72.384 20.8865 72.2534 21.0825 72.1489 21.2784V21.2653C72.0574 21.1086 71.9137 20.8473 71.7701 20.7036C71.2345 20.1028 70.5292 19.9722 70.0197 19.9722C69.1184 19.9722 68.4 20.4555 68.0604 20.9649V20.5861C68.0604 20.351 67.8775 20.1681 67.6424 20.1681H67.1722C66.937 20.1681 66.7542 20.351 66.7542 20.5861V26.5163C66.7542 26.7515 66.937 26.9343 67.1722 26.9343H67.7077C67.9428 26.9343 68.1257 26.7515 68.1257 26.5163V23.2377C68.1257 22.6891 68.2433 22.245 68.4653 21.9054C68.7004 21.5004 69.1576 21.2784 69.667 21.2784C70.2157 21.2914 70.6206 21.5004 70.8818 21.9184C71.0778 22.245 71.1561 22.6238 71.1431 23.2116V26.5163C71.1431 26.7515 71.3259 26.9343 71.5611 26.9343H72.1097C72.3448 26.9343 72.5277 26.7515 72.5277 26.5163V23.2116C72.5277 22.6369 72.5669 22.2842 72.8281 21.8923C73.0632 21.5135 73.5204 21.2784 74.056 21.2784C74.5915 21.2784 74.9442 21.4482 75.1924 21.8009C75.4275 22.1144 75.545 22.5715 75.545 23.2508V26.5033C75.545 26.7384 75.7279 26.9213 75.963 26.9213H76.4986C76.7337 26.9213 76.9166 26.7384 76.9166 26.5033V23.1985C76.9166 21.8531 76.7337 21.2261 76.172 20.6514C75.6104 20.0505 74.8005 19.9591 74.3694 19.9722ZM84.0747 20.155H83.5391C83.304 20.155 83.1211 20.3379 83.1211 20.573V23.93C83.1211 25.1317 82.4942 25.811 81.3577 25.824C80.2213 25.824 79.6466 25.1448 79.6466 23.8255V20.5861C79.6466 20.351 79.4637 20.1681 79.2286 20.1681H78.693C78.4579 20.1681 78.2751 20.351 78.2751 20.5861V24.126C78.2751 26.7253 79.9862 27.1172 81.0051 27.1303H81.0442C82.0109 27.1303 82.7815 26.7515 83.1865 26.0722V26.5163C83.1865 26.7515 83.3693 26.9343 83.6044 26.9343H84.0747C84.3098 26.9343 84.4927 26.7515 84.4927 26.5163V20.5861C84.4927 20.351 84.2967 20.155 84.0747 20.155ZM89.5216 19.9722C88.5289 19.9591 87.7452 20.3379 87.3402 21.0302V20.5861C87.3402 20.351 87.1574 20.1681 86.9222 20.1681H86.452C86.2169 20.1681 86.034 20.351 86.034 20.5861V26.5163C86.034 26.7515 86.2169 26.9343 86.452 26.9343H86.9876C87.2227 26.9343 87.4055 26.7515 87.4055 26.5163V23.1724C87.4055 21.9707 88.0325 21.2914 89.1689 21.2784C89.6784 21.2653 90.0833 21.409 90.3707 21.6964C90.6972 22.0229 90.867 22.5585 90.867 23.2769V26.5163C90.867 26.7515 91.0499 26.9343 91.285 26.9343H91.8336C92.0688 26.9343 92.2516 26.7515 92.2516 26.5163V22.9765C92.2647 20.3771 90.5405 19.9722 89.5216 19.9722ZM99.2922 23.512C99.3183 24.126 99.0962 24.7138 98.6652 25.1448C98.2341 25.5759 97.6594 25.824 97.0455 25.824C95.5694 25.824 94.7857 24.6746 94.7726 23.5382V23.5251C94.7726 22.2319 95.7523 21.2523 97.0455 21.2523C97.6594 21.2523 98.2211 21.4743 98.6391 21.8923C99.0701 22.3234 99.2922 22.885 99.2922 23.512ZM100.18 17.7646H99.6449C99.4097 17.7646 99.2269 17.9606 99.2269 18.1826V21.1086C98.9003 20.6253 98.1166 19.9722 96.8365 19.9722C94.8771 19.9722 93.4011 21.5004 93.4011 23.5382C93.4011 25.615 94.851 27.1303 96.8495 27.1303C98.2341 27.1303 98.9395 26.438 99.2661 25.9155V26.5033C99.2661 26.7384 99.4489 26.9213 99.684 26.9213H100.18C100.416 26.9213 100.598 26.7384 100.598 26.5033V18.1826C100.598 17.9475 100.416 17.7646 100.18 17.7646ZM104.491 22.8328L104.465 22.8197C103.786 22.6238 103.328 22.4017 103.302 21.9054C103.302 21.6964 103.368 21.5135 103.511 21.3698C103.681 21.2 103.916 21.1086 104.204 21.1086H104.23C104.674 21.1086 104.974 21.3176 105.079 21.6964C105.131 21.8793 105.288 22.0099 105.484 22.0099H105.993C106.124 22.0099 106.241 21.9446 106.32 21.8401C106.398 21.7356 106.424 21.6049 106.398 21.4743C106.111 20.351 105.079 19.9591 104.217 19.9591C102.897 19.9591 101.931 20.8343 101.931 22.036C101.944 23.1593 102.845 23.5773 103.642 23.8125C104.831 24.2043 105.288 24.4133 105.301 25.0272C105.301 25.5497 104.844 25.9677 104.269 25.9677C103.877 25.9677 103.355 25.7718 103.198 25.2101C103.146 25.0272 102.989 24.8966 102.793 24.8966H102.244C102.114 24.8966 101.996 24.9489 101.918 25.0534C101.839 25.1579 101.813 25.2885 101.839 25.4191C102.114 26.5947 103.25 27.1303 104.243 27.1303C104.961 27.1303 105.627 26.869 106.071 26.4118C106.463 26.0069 106.672 25.4844 106.659 24.8966C106.62 23.4337 105.484 23.1202 104.491 22.8328ZM41.5571 18.5484H39.8982C39.5194 18.5484 39.219 18.7966 39.219 19.1101V20.0114C39.219 20.0636 39.219 20.1289 39.2451 20.1812C39.6109 19.737 40.1595 19.4758 40.7342 19.4758C41.1653 19.4758 41.8706 19.737 42.2233 20.1681C42.2364 20.1158 42.2494 20.0636 42.2494 20.0114V19.1101C42.2364 18.7966 41.9359 18.5484 41.5571 18.5484Z" fill="white"/>
<path d="M38.043 26.0192C37.847 26.0584 37.6511 26.0715 37.4552 26.0846C37.2592 26.0715 37.0633 26.0584 36.8674 26.0192C35.4567 25.758 34.3594 24.7522 33.8761 23.4721C34.5554 24.2558 35.9269 24.6608 37.4552 24.6738C38.9835 24.6608 40.3419 24.2558 41.0342 23.4721C40.5509 24.7522 39.4537 25.7449 38.043 26.0192ZM32.7005 19.3183V20.2196C32.7005 20.3241 32.7397 20.4155 32.792 20.4939C32.2564 20.5462 31.7339 20.6245 31.2637 20.716C31.5249 20.0498 32.0605 18.9918 32.7136 18.3256C32.8311 18.208 33.2753 17.8162 33.9414 17.6986C34.268 17.6464 35.4305 17.4765 37.2331 17.4765H37.7164C39.519 17.4765 40.6815 17.6464 41.0081 17.6986C41.4653 17.79 41.8963 17.999 42.2359 18.3256C42.876 18.9918 43.4246 20.0629 43.6859 20.716C42.667 20.4939 41.4914 20.4155 40.2374 20.3764C40.0937 20.3764 39.7149 20.3633 39.3623 20.3633H35.7048C35.7179 20.311 35.731 20.2588 35.731 20.2066V19.3053C35.731 18.9918 35.4305 18.7436 35.0517 18.7436H33.3928C33.014 18.7697 32.7005 19.0179 32.7005 19.3183ZM42.9674 25.1702C42.4319 25.1179 42.0139 24.6869 41.9616 24.1513C41.8963 23.5244 42.3535 22.9757 42.9674 22.9104C43.0458 22.8974 43.1242 22.8974 43.2026 22.9104C43.7381 22.9627 44.1561 23.3937 44.2083 23.9293C44.2737 24.5563 43.8165 25.1049 43.2026 25.1702C43.1111 25.1702 43.0458 25.1702 42.9674 25.1702ZM31.7339 25.1702C31.1984 25.1179 30.7804 24.6869 30.7281 24.1513C30.6628 23.5244 31.12 22.9757 31.7339 22.9104C31.8123 22.8974 31.8907 22.8974 31.969 22.9104C32.596 22.9888 33.0271 23.5635 32.9487 24.1905C32.8703 24.7783 32.3348 25.2094 31.7339 25.1702ZM46.6118 20.0759C46.5987 19.8147 46.3767 19.6057 46.1154 19.6188L45.0574 19.6449C44.8223 19.6579 44.6263 19.8277 44.6002 20.0629C44.6002 20.1151 44.5871 20.1674 44.5741 20.2196L44.4565 19.9845C44.0255 19.1877 43.4377 18.2211 42.8499 17.6202C42.8499 17.6202 42.3274 16.9802 41.2955 16.7712C40.3942 16.5753 38.9181 16.523 37.4682 16.5361C36.0183 16.523 34.5554 16.5753 33.641 16.7712C32.6091 16.9802 32.0866 17.6202 32.0866 17.6202C31.4988 18.2211 30.911 19.1877 30.4799 19.9845L30.3493 20.2457C30.3363 20.1804 30.3232 20.1282 30.3101 20.0629C30.284 19.8277 30.0881 19.6579 29.853 19.6449L28.7949 19.6188C28.5337 19.6057 28.3116 19.8147 28.2986 20.0759L28.2855 20.5854C28.2724 20.8466 28.4814 21.0687 28.7427 21.0817L29.866 21.2123L29.8791 21.1862L29.853 21.2385C29.4872 21.6695 29.2521 22.1659 29.1868 22.5578C29.0692 22.9757 29.0039 23.4982 29.0039 24.1775C29.0039 25.1441 29.2652 26.4634 29.3305 27.1165V28.0831C29.3305 28.5664 29.7223 28.9452 30.1926 28.9452H31.3682C31.8515 28.9452 32.2303 28.5533 32.2303 28.0831V27.3647C33.4581 27.2471 35.4567 27.2079 37.4682 27.2079C39.4798 27.2079 41.4783 27.2471 42.7062 27.3647V28.0831C42.7062 28.5664 43.0981 28.9452 43.5683 28.9452H44.7439C45.2272 28.9452 45.606 28.5533 45.606 28.0831V27.1165C45.6713 26.4764 45.9326 25.1441 45.9326 24.1775C45.9326 22.6753 45.3709 21.6173 45.0835 21.2385L45.0705 21.1993L46.1677 21.0687C46.4289 21.0556 46.6379 20.8335 46.6249 20.5723C46.6249 20.5984 46.6118 20.0759 46.6118 20.0759Z" fill="white"/>
</svg>
