<svg width="240" height="80" viewBox="0 0 240 80" fill="none" xmlns="http://www.w3.org/2000/svg">
<rect width="240" height="80" fill="#EA1D2C"/>
<g clip-path="url(#clip0_759_323)">
<path d="M73 43.7044H80.2047L84.2082 23.8017H77.0026L73 43.7044ZM77.3995 21.4279H84.6344L85.8234 15.4731H78.5914L77.3995 21.4279ZM83.0069 49.3049H90.2126L94.6149 27.802H100.019L100.815 23.8017H95.5154L95.7162 22.9017C96.0161 21.2055 96.6167 19.301 99.3181 19.301C100.921 19.301 102.421 19.4009 103.921 20.101L104.723 15.9009C103.051 15.3113 101.292 15.0068 99.5189 15C93.7145 15 89.7128 18.401 88.2108 23.8017H85.7093L84.9088 27.802H87.4103L83.0069 49.3049Z" fill="white"/>
<path d="M105.823 44.1049C114.329 44.1049 120.233 36.403 120.233 30.1023C120.233 25.4018 115.93 23.4012 111.727 23.4012C102.418 23.4012 97.3172 31.7072 97.3172 37.4038C97.3172 42.1043 101.721 44.1049 105.823 44.1049ZM128.641 44.1049C137.147 44.1049 143.051 36.403 143.051 30.1023C143.051 25.4018 138.648 23.4012 134.445 23.4012C125.138 23.4012 120.035 31.7025 120.035 37.4038C120.035 42.1043 124.539 44.1049 128.641 44.1049ZM154.759 43.7044H161.864L167.667 15.4043H160.462L158.76 23.8055L155.758 23.5058C148.753 23.5058 142.349 32.5063 142.349 38.9078C142.349 41.5078 144.046 44.1087 146.952 44.1087C151.055 44.1087 153.957 42.1081 155.155 40.1074H155.555L154.759 43.7044ZM132.542 58.607C126.949 63.238 119.767 65.4993 112.528 64.9076C103.021 64.3074 96.2159 57.0059 95.0156 49.3049H95.4154C97.6171 54.111 102.921 58.607 109.426 59.3062C116.026 60.1063 123.936 57.1067 128.239 53.0056L123.435 49.3049H137.946L134.74 64.7079L132.638 58.7069L132.542 58.607Z" fill="white"/>
</g>
<defs>
<clipPath id="clip0_759_323">
<rect width="94.6667" height="50" fill="white" transform="translate(73 15)"/>
</clipPath>
</defs>
</svg>
