<svg width="152" height="52" viewBox="0 0 152 52" fill="none" xmlns="http://www.w3.org/2000/svg">
<g clip-path="url(#clip0_2824_10222)">
<path d="M102.469 46.3959C84.7287 46.3959 66.9743 46.3959 49.2339 46.3959C49.1916 46.3536 49.1634 46.3112 49.1211 46.2688C49.2339 46.2123 49.3608 46.184 49.4454 46.0993C53.1402 42.4405 56.8208 38.7817 60.5014 35.1371C64.8167 30.8567 69.1178 26.5905 73.433 22.3102C74.1804 21.5614 74.9419 20.841 75.6893 20.0782C75.9291 19.838 76.056 19.838 76.2957 20.0782C80.4981 24.3161 84.7287 28.54 88.9452 32.7638C93.3874 37.2137 97.8154 41.6635 102.258 46.0993C102.342 46.184 102.441 46.2547 102.54 46.3253C102.511 46.3536 102.497 46.3818 102.469 46.3959Z" fill="#88BC41"/>
<path d="M71.4732 13.0036C70.9938 12.5374 70.5425 12.0853 70.1194 11.6757C72.1219 9.62731 74.1244 7.57896 76.1128 5.53061C76.7897 6.19456 77.4384 6.81613 78.0589 7.46595C78.1153 7.52245 78.0871 7.7061 78.0307 7.80499C77.4102 9.034 76.7897 10.263 76.1692 11.492C76.1128 11.605 76.0564 11.7039 75.9718 11.8876C76.141 11.8169 76.2397 11.7745 76.3525 11.7322C77.6217 11.153 78.905 10.5879 80.1742 9.9946C80.3857 9.89572 80.5126 9.89572 80.696 10.0794C81.2601 10.6444 81.8382 11.1954 82.3459 11.6898C80.3011 13.7946 78.2845 15.843 76.2961 17.8772C75.7885 17.3828 75.309 16.9025 74.8436 16.4504C75.8308 15.4475 76.8461 14.4162 77.8615 13.3991C77.8474 13.3709 77.8333 13.3426 77.8192 13.3143C77.7204 13.3567 77.6076 13.3991 77.5089 13.4415C76.2961 13.9924 75.0834 14.5434 73.8706 15.0943C73.6732 15.1791 73.5321 15.2073 73.377 15.0237C73.1655 14.7694 72.7847 14.5575 72.7424 14.2891C72.7001 14.0207 72.954 13.6816 73.095 13.385C73.6027 12.269 74.1244 11.153 74.5898 9.9946C73.5462 11.0117 72.5027 12.0147 71.4732 13.0036ZM104.641 42.3868C104.669 42.2597 104.684 42.2173 104.684 42.1749C105.234 40.2396 105.783 38.3042 106.319 36.3689C106.348 36.2559 106.376 36.0722 106.305 36.0016C105.642 35.3235 104.966 34.6737 104.26 33.9956C102.272 36.0299 100.255 38.0923 98.2671 40.1266C98.6902 40.5362 99.1696 41.0024 99.6632 41.4968C100.975 40.2113 102.328 38.8975 103.626 37.6403C103.626 37.5979 103.626 37.6403 103.612 37.6827C103.161 39.5756 102.723 41.4686 102.244 43.3474C102.117 43.856 102.145 44.2091 102.568 44.5623C103.048 44.9578 103.471 45.4381 103.95 45.9184C105.967 43.856 107.969 41.8076 109.972 39.7593C109.563 39.3637 109.097 38.9117 108.547 38.3607C107.292 39.6604 105.995 40.9883 104.641 42.3868ZM82.1062 23.7115C82.4587 23.3442 82.8677 22.9345 83.3331 22.4542C82.4869 21.6208 81.5985 20.7732 80.7665 19.968C81.2319 19.5018 81.6549 19.0639 82.1203 18.5836C82.7831 19.2475 83.4741 19.9397 84.151 20.6036C84.5458 20.194 84.9548 19.7843 85.4484 19.2899C84.7715 18.6259 84.0523 17.9479 83.4177 17.3263C83.742 16.9731 84.0523 16.6482 84.3625 16.3092C85.2509 17.185 86.1394 18.0467 87.0137 18.9085C87.3944 18.527 87.7893 18.1174 88.1842 17.7077C86.7739 16.3233 85.3355 14.9248 83.883 13.498C81.937 15.4898 79.9345 17.5382 77.9038 19.6148C79.2858 20.9427 80.7101 22.3412 82.1062 23.7115ZM51.0253 34.8008C50.5881 34.4053 50.2074 34.0521 49.8689 33.7414C50.701 32.8514 51.533 31.9755 52.3791 31.0714C52.0124 30.7324 51.6176 30.351 51.2086 29.9696C49.8266 31.3257 48.4164 32.7101 47.0344 34.0521C49.0792 36.1005 51.0958 38.1206 53.1265 40.1548C54.5085 38.7987 55.9187 37.4284 57.343 36.0299C56.9199 35.6343 56.5251 35.267 56.1161 34.8715C55.2559 35.7049 54.3675 36.5808 53.5214 37.4143C53.056 36.9763 52.6188 36.5667 52.2099 36.1852C52.915 35.4365 53.5919 34.702 54.297 33.9533C53.9021 33.586 53.4932 33.2045 52.9714 32.7101C52.3086 33.4164 51.6317 34.151 51.0253 34.8008ZM65.917 15.9419C65.7196 15.8713 65.5927 15.8854 65.4517 16.0408C65.0286 16.4787 64.5774 16.9025 64.1402 17.3263C64.0838 17.3828 64.0415 17.4534 63.971 17.5382C65.0427 17.8914 66.0722 18.2163 67.1157 18.5553C67.8631 18.7955 68.681 18.9226 69.3438 19.3181C69.9925 19.7137 70.5002 20.3776 71.0502 20.9427C71.3322 21.2393 71.6002 21.5501 71.8822 21.875C72.4463 21.2676 72.9399 20.7449 73.4475 20.2081C72.7706 19.5159 72.0373 18.7813 71.3322 18.0326C71.2194 17.9055 71.1207 17.7501 71.0784 17.5806C70.8246 16.5493 70.5848 15.504 70.331 14.4727C70.1336 13.6393 69.922 12.7917 69.7105 11.9017C69.1041 12.495 68.54 13.0459 67.99 13.5969C67.9336 13.6534 67.9336 13.8088 67.9618 13.9077C68.0747 14.3315 68.2016 14.7411 68.3144 15.1649C68.4836 15.7724 68.6528 16.3798 68.8362 17.0579C67.8067 16.6341 66.8619 16.295 65.917 15.9419ZM97.6184 27.2855C97.1107 26.7911 96.589 26.2825 96.039 25.7457C94.0647 27.7658 92.0763 29.8142 90.0456 31.8908C91.3994 33.2187 92.8096 34.5889 94.2057 35.9451C94.6429 35.493 95.1224 35.0127 95.6441 34.4759C94.8121 33.6566 93.9378 32.809 93.0635 31.9614C94.6147 30.351 96.1377 28.7971 97.6184 27.2855ZM47.9652 45.2404C49.3754 43.8701 50.7574 42.5139 52.1535 41.1437C51.6599 40.6916 51.1804 40.2396 50.6869 39.7875C49.8689 40.5786 49.0087 41.4262 48.1203 42.2879C46.5691 40.6916 45.0319 39.1236 43.4948 37.5414C42.9871 38.0782 42.4936 38.5868 42 39.1236C43.9602 41.1295 45.9486 43.1779 47.9652 45.2404ZM101.327 31.0714C99.353 33.0915 97.3646 35.1399 95.3762 37.1741C95.8275 37.6262 96.3351 38.1347 96.8851 38.6715C98.8594 36.6514 100.862 34.6031 102.85 32.5547C102.399 32.1027 101.877 31.6082 101.327 31.0714ZM92.9083 26.0848C92.0763 26.7346 91.1738 26.9323 90.1443 26.5368C89.7072 27.893 89.27 29.2209 88.8328 30.577C88.297 30.0543 87.7893 29.574 87.2957 29.0513C87.2252 28.9666 87.2534 28.7547 87.2816 28.6275C87.6342 27.003 87.9867 25.3784 88.3534 23.7397C88.3675 23.6832 88.3675 23.6267 88.3252 23.5278C87.2675 24.6297 86.2099 25.7316 85.1663 26.8052C84.574 26.226 84.0523 25.7175 83.601 25.2795C85.5753 23.2312 87.5637 21.1687 89.5097 19.1486C90.8353 20.4341 92.1186 21.6208 93.3173 22.8922C94.1211 23.7115 93.8673 25.3219 92.9083 26.0848ZM91.3712 23.3301C90.934 22.8498 90.4264 22.426 89.961 21.9881C89.5238 22.4401 89.0585 22.9063 88.5649 23.4148C88.8469 23.7115 89.1431 24.0364 89.4392 24.3472C89.4956 24.4178 89.5521 24.4885 89.6226 24.5308C89.7495 24.6297 89.8764 24.7286 90.0174 24.7851C90.4687 24.9829 90.9764 24.8416 91.2725 24.4602C91.5968 24.0647 91.6674 23.6409 91.3712 23.3301ZM68.4695 23.5702C68.4695 25.8729 66.3119 27.9495 63.9146 27.9495C61.63 27.9495 59.5288 25.8305 59.5288 23.5278C59.5288 20.9709 61.3903 19.078 63.9287 19.078C66.4529 19.0639 68.4554 21.0557 68.4695 23.5702ZM66.3542 23.5702C65.9452 22.539 65.2119 21.7196 64.2248 21.197C63.6043 20.8721 62.9697 20.9286 62.4056 21.3382C61.8134 21.762 61.4749 22.3412 61.5454 23.1041C61.6582 24.3189 63.4069 25.9152 64.6197 25.9011C65.7478 25.887 66.7632 24.5873 66.3542 23.5702ZM63.3928 30.0261C62.9133 30.5346 62.4479 31.0432 61.9685 31.5376C61.898 31.6082 61.7005 31.58 61.5736 31.5517C60.0506 31.1562 58.5276 30.7465 57.0046 30.351C56.9058 30.3227 56.8071 30.3086 56.6802 30.3369C57.7379 31.4246 58.7814 32.4982 59.7827 33.5295C59.275 34.0804 58.7673 34.6172 58.3019 35.1116C56.2572 33.1057 54.2124 31.0997 52.1676 29.0937C52.2522 28.9948 52.3086 28.9242 52.365 28.8677C53.3239 27.9071 54.297 26.9606 55.2559 26.0141C55.8905 25.3926 56.652 25.0676 57.5545 25.1807C58.7109 25.3219 59.557 26.2543 59.5852 27.455C59.5993 27.8788 59.5288 28.3168 59.5006 28.7688C60.8121 29.1785 62.1236 29.6164 63.3928 30.0261ZM57.5545 27.6811C57.1738 27.2996 56.6943 27.2149 56.2995 27.5257C55.8623 27.8647 55.4674 28.2602 55.0444 28.6417C55.5803 29.1361 56.0738 29.6023 56.6097 30.0967C56.8353 29.8848 57.1315 29.6164 57.4135 29.348C57.5263 29.235 57.6392 29.1361 57.7238 29.009C58.0199 28.5569 57.9635 28.0907 57.5545 27.6811Z" fill="#111111"/>
</g>
<defs>
<clipPath id="clip0_2824_10222">
<rect width="68" height="40.9388" fill="white" transform="translate(42 5.53061)"/>
</clipPath>
</defs>
</svg>
