<svg width="644" height="399" viewBox="0 0 644 399" fill="none" xmlns="http://www.w3.org/2000/svg">
<g clip-path="url(#clip0_474_6202)">
<g filter="url(#filter0_d_474_6202)">
<path d="M552.94 12.583H90.02C81.1835 12.583 74.02 19.7465 74.02 28.583V345.273C74.02 354.11 81.1835 361.273 90.02 361.273H552.94C561.777 361.273 568.94 354.11 568.94 345.273V28.583C568.94 19.7465 561.777 12.583 552.94 12.583Z" fill="#F1F2F4"/>
</g>
<path d="M551.7 18.2031H91.25C84.6226 18.2031 79.25 23.5757 79.25 30.2031V343.633C79.25 350.261 84.6226 355.633 91.25 355.633H551.7C558.327 355.633 563.7 350.261 563.7 343.633V30.2031C563.7 23.5757 558.327 18.2031 551.7 18.2031Z" fill="white"/>
<mask id="mask0_474_6202" style="mask-type:luminance" maskUnits="userSpaceOnUse" x="79" y="18" width="485" height="338">
<path d="M551.7 18.2031H91.25C84.6226 18.2031 79.25 23.5757 79.25 30.2031V343.633C79.25 350.261 84.6226 355.633 91.25 355.633H551.7C558.327 355.633 563.7 350.261 563.7 343.633V30.2031C563.7 23.5757 558.327 18.2031 551.7 18.2031Z" fill="white"/>
</mask>
<g mask="url(#mask0_474_6202)">
<path d="M563.7 18.2031H79.25V44.8931H563.7V18.2031Z" fill="#001830"/>
</g>
<path d="M123.42 64.1138H123.5L125.39 58.3838H126.84L124.27 65.6638H122.64L120.08 58.3838H121.53L123.42 64.1138Z" fill="#667A8F"/>
<path d="M129.11 65.6638H127.79V58.3838H129.11V65.6638Z" fill="#667A8F"/>
<path d="M133.12 59.4034C132.3 59.4034 131.8 59.8034 131.8 60.3534C131.8 60.9634 132.44 61.2134 133.04 61.3534L133.72 61.5234C134.82 61.7834 135.86 62.3534 135.86 63.6234C135.86 64.9034 134.84 65.7734 133.1 65.7734C131.36 65.7734 130.33 64.9634 130.27 63.5134H131.57C131.62 64.2734 132.26 64.6434 133.09 64.6434C133.92 64.6434 134.54 64.2234 134.54 63.6034C134.54 63.0334 134.02 62.7934 133.23 62.5934L132.4 62.3834C131.2 62.0734 130.46 61.4734 130.46 60.4234C130.46 59.1334 131.6 58.2734 133.13 58.2734C134.66 58.2734 135.73 59.1434 135.75 60.3734H134.48C134.41 59.7534 133.89 59.3834 133.11 59.3834L133.12 59.4034Z" fill="#667A8F"/>
<path d="M138.35 65.6638H137.03V58.3838H138.35V65.6638Z" fill="#667A8F"/>
<path d="M139.46 58.3838H145.27V59.4938H143.02V65.6738H141.71V59.4938H139.46V58.3838Z" fill="#667A8F"/>
<path d="M149.22 65.7632C147.31 65.7632 145.87 64.3732 145.87 62.0232C145.87 59.6732 147.3 58.2832 149.22 58.2832C151.14 58.2832 152.57 59.6732 152.57 62.0232C152.57 64.3732 151.13 65.7632 149.22 65.7632ZM149.22 59.4632C148.04 59.4632 147.2 60.3632 147.2 62.0232C147.2 63.6832 148.04 64.5832 149.22 64.5832C150.4 64.5832 151.24 63.6832 151.24 62.0232C151.24 60.3632 150.41 59.4632 149.22 59.4632Z" fill="#667A8F"/>
<path d="M153.81 58.3838H156.54C158.21 58.3838 159.11 59.3238 159.11 60.7138C159.11 61.7038 158.66 62.4338 157.8 62.7838L159.38 65.6738H157.91L156.48 63.0038H155.14V65.6738H153.82V58.3938L153.81 58.3838ZM156.35 61.9038C157.33 61.9038 157.77 61.4838 157.77 60.7138C157.77 59.9438 157.33 59.4838 156.34 59.4838H155.13V61.9038H156.35Z" fill="#667A8F"/>
<path d="M162.9 59.4034C162.08 59.4034 161.58 59.8034 161.58 60.3534C161.58 60.9634 162.22 61.2134 162.82 61.3534L163.5 61.5234C164.6 61.7834 165.64 62.3534 165.64 63.6234C165.64 64.9034 164.62 65.7734 162.88 65.7734C161.14 65.7734 160.11 64.9634 160.05 63.5134H161.35C161.4 64.2734 162.04 64.6434 162.87 64.6434C163.7 64.6434 164.32 64.2234 164.32 63.6034C164.32 63.0334 163.8 62.7934 163.01 62.5934L162.18 62.3834C160.98 62.0734 160.24 61.4734 160.24 60.4234C160.24 59.1334 161.38 58.2734 162.91 58.2734C164.44 58.2734 165.51 59.1434 165.53 60.3734H164.26C164.19 59.7534 163.67 59.3834 162.89 59.3834L162.9 59.4034Z" fill="#667A8F"/>
<path d="M170.6 65.6638H169.28V58.3838H170.6V65.6638Z" fill="#667A8F"/>
<path d="M178.02 65.6638H176.85L173.42 60.7038H173.36V65.6638H172.04V58.3838H173.22L176.65 63.3438H176.71V58.3838H178.02V65.6638Z" fill="#667A8F"/>
<path d="M184.51 59.4034C183.69 59.4034 183.19 59.8034 183.19 60.3534C183.19 60.9634 183.83 61.2134 184.43 61.3534L185.11 61.5234C186.21 61.7834 187.25 62.3534 187.25 63.6234C187.25 64.9034 186.23 65.7734 184.49 65.7734C182.75 65.7734 181.72 64.9634 181.66 63.5134H182.96C183.01 64.2734 183.65 64.6434 184.48 64.6434C185.31 64.6434 185.93 64.2234 185.93 63.6034C185.93 63.0334 185.41 62.7934 184.62 62.5934L183.79 62.3834C182.59 62.0734 181.85 61.4734 181.85 60.4234C181.85 59.1334 182.99 58.2734 184.52 58.2734C186.05 58.2734 187.12 59.1434 187.14 60.3734H185.87C185.8 59.7534 185.28 59.3834 184.5 59.3834L184.51 59.4034Z" fill="#667A8F"/>
<path d="M188.42 58.3838H193.16V59.4938H189.74V61.4738H192.91V62.5838H189.74V64.5738H193.19V65.6838H188.43V58.4038L188.42 58.3838Z" fill="#667A8F"/>
<path d="M197.66 59.473C196.48 59.473 195.63 60.383 195.63 62.023C195.63 63.663 196.47 64.583 197.68 64.583C198.78 64.583 199.47 63.923 199.49 62.883H197.81V61.853H200.76V62.733C200.76 64.613 199.47 65.773 197.67 65.773C195.66 65.773 194.3 64.343 194.3 62.043C194.3 59.743 195.73 58.293 197.63 58.293C199.24 58.293 200.48 59.293 200.7 60.713H199.36C199.13 59.943 198.53 59.473 197.65 59.473H197.66Z" fill="#667A8F"/>
<path d="M203.65 58.3838L205.81 63.6638H205.89L208.05 58.3838H209.66V65.6638H208.39V60.6638H208.32L206.31 65.6438H205.36L203.35 60.6538H203.28V65.6638H202.01V58.3838H203.62H203.65Z" fill="#667A8F"/>
<path d="M211.1 58.3838H215.84V59.4938H212.42V61.4738H215.59V62.5838H212.42V64.5738H215.87V65.6838H211.11V58.4038L211.1 58.3838Z" fill="#667A8F"/>
<path d="M223.16 65.6638H221.99L218.56 60.7038H218.5V65.6638H217.18V58.3838H218.36L221.79 63.3438H221.85V58.3838H223.16V65.6638Z" fill="#667A8F"/>
<path d="M224.27 58.3838H230.08V59.4938H227.83V65.6738H226.52V59.4938H224.27V58.3838Z" fill="#667A8F"/>
<path d="M244.65 36.1228H243.48L240.05 31.1628H239.99V36.1228H238.67V28.8428H239.85L243.28 33.8028H243.34V28.8428H244.65V36.1228Z" fill="white"/>
<path d="M246.08 28.833H250.82V29.943H247.4V31.923H250.57V33.033H247.4V35.023H250.85V36.133H246.09V28.853L246.08 28.833Z" fill="white"/>
<path d="M251.63 28.833H253.05L254.36 34.183H254.43L255.83 28.833H257.12L258.52 34.183H258.58L259.89 28.833H261.31L259.26 36.113H257.96L256.5 31.003H256.44L254.98 36.113H253.68L251.62 28.833H251.63Z" fill="white"/>
<path d="M264.7 28.833H267.43C269.1 28.833 270 29.773 270 31.163C270 32.153 269.55 32.883 268.69 33.233L270.27 36.123H268.8L267.37 33.453H266.03V36.123H264.71V28.843L264.7 28.833ZM267.24 32.353C268.22 32.353 268.66 31.933 268.66 31.163C268.66 30.393 268.22 29.933 267.23 29.933H266.02V32.353H267.24Z" fill="white"/>
<path d="M271.21 28.833H275.95V29.943H272.53V31.923H275.7V33.033H272.53V35.023H275.98V36.133H271.22V28.853L271.21 28.833Z" fill="white"/>
<path d="M276.96 28.833H282.77V29.943H280.52V36.123H279.21V29.943H276.96V28.833Z" fill="white"/>
<path d="M282.53 36.1228L285.09 28.8428H286.72L289.29 36.1228H287.88L287.28 34.3228H284.54L283.94 36.1228H282.53ZM286.92 33.2728L285.94 30.3428H285.88L284.89 33.2728H286.92Z" fill="white"/>
<path d="M290.24 28.833H292.97C294.64 28.833 295.54 29.773 295.54 31.163C295.54 32.153 295.09 32.883 294.23 33.233L295.81 36.123H294.34L292.91 33.453H291.57V36.123H290.25V28.843L290.24 28.833ZM292.78 32.353C293.76 32.353 294.2 31.933 294.2 31.163C294.2 30.393 293.76 29.933 292.77 29.933H291.56V32.353H292.78Z" fill="white"/>
<path d="M299.91 29.9222C298.73 29.9222 297.88 30.8322 297.88 32.4722C297.88 34.1122 298.72 35.0322 299.93 35.0322C301.03 35.0322 301.72 34.3722 301.74 33.3322H300.06V32.3022H303.01V33.1822C303.01 35.0622 301.72 36.2222 299.92 36.2222C297.91 36.2222 296.55 34.7922 296.55 32.4922C296.55 30.1922 297.98 28.7422 299.88 28.7422C301.49 28.7422 302.73 29.7422 302.95 31.1622H301.61C301.38 30.3922 300.78 29.9222 299.9 29.9222H299.91Z" fill="white"/>
<path d="M304.29 28.833H309.03V29.943H305.61V31.923H308.78V33.033H305.61V35.023H309.06V36.133H304.3V28.853L304.29 28.833Z" fill="white"/>
<path d="M310.05 28.833H315.86V29.943H313.61V36.123H312.3V29.943H310.05V28.833Z" fill="white"/>
<path d="M318.28 36.1228H316.96V28.8428H318.28V36.1228Z" fill="white"/>
<path d="M325.7 36.1228H324.53L321.1 31.1628H321.04V36.1228H319.72V28.8428H320.9L324.33 33.8028H324.39V28.8428H325.7V36.1228Z" fill="white"/>
<path d="M330.29 29.9222C329.11 29.9222 328.26 30.8322 328.26 32.4722C328.26 34.1122 329.1 35.0322 330.31 35.0322C331.41 35.0322 332.1 34.3722 332.12 33.3322H330.44V32.3022H333.39V33.1822C333.39 35.0622 332.1 36.2222 330.3 36.2222C328.29 36.2222 326.93 34.7922 326.93 32.4922C326.93 30.1922 328.36 28.7422 330.26 28.7422C331.87 28.7422 333.11 29.7422 333.33 31.1622H331.99C331.76 30.3922 331.16 29.9222 330.28 29.9222H330.29Z" fill="white"/>
<path d="M339.74 29.8527C338.92 29.8527 338.42 30.2527 338.42 30.8027C338.42 31.4127 339.06 31.6627 339.66 31.8027L340.34 31.9727C341.44 32.2327 342.48 32.8027 342.48 34.0727C342.48 35.3527 341.46 36.2227 339.72 36.2227C337.98 36.2227 336.95 35.4127 336.89 33.9627H338.19C338.24 34.7227 338.88 35.0927 339.71 35.0927C340.54 35.0927 341.16 34.6727 341.16 34.0527C341.16 33.4827 340.64 33.2427 339.85 33.0427L339.02 32.8327C337.82 32.5227 337.08 31.9227 337.08 30.8727C337.08 29.5827 338.22 28.7227 339.75 28.7227C341.28 28.7227 342.35 29.5927 342.37 30.8227H341.1C341.03 30.2027 340.51 29.8327 339.73 29.8327L339.74 29.8527Z" fill="white"/>
<path d="M343.64 28.833H348.38V29.943H344.96V31.923H348.13V33.033H344.96V35.023H348.41V36.133H343.65V28.853L343.64 28.833Z" fill="white"/>
<path d="M352.89 29.9222C351.71 29.9222 350.86 30.8322 350.86 32.4722C350.86 34.1122 351.7 35.0322 352.91 35.0322C354.01 35.0322 354.7 34.3722 354.72 33.3322H353.04V32.3022H355.99V33.1822C355.99 35.0622 354.7 36.2222 352.9 36.2222C350.89 36.2222 349.53 34.7922 349.53 32.4922C349.53 30.1922 350.96 28.7422 352.86 28.7422C354.47 28.7422 355.71 29.7422 355.93 31.1622H354.59C354.36 30.3922 353.76 29.9222 352.88 29.9222H352.89Z" fill="white"/>
<path d="M358.88 28.833L361.04 34.113H361.12L363.28 28.833H364.89V36.113H363.62V31.113H363.55L361.54 36.093H360.59L358.58 31.103H358.51V36.113H357.24V28.833H358.85H358.88Z" fill="white"/>
<path d="M366.33 28.833H371.07V29.943H367.65V31.923H370.82V33.033H367.65V35.023H371.1V36.133H366.34V28.853L366.33 28.833Z" fill="white"/>
<path d="M378.39 36.1228H377.22L373.79 31.1628H373.73V36.1228H372.41V28.8428H373.59L377.02 33.8028H377.08V28.8428H378.39V36.1228Z" fill="white"/>
<path d="M379.49 28.833H385.3V29.943H383.05V36.123H381.74V29.943H379.49V28.833Z" fill="white"/>
<path d="M268.06 58.3838H270.85C272.43 58.3838 273.21 59.1838 273.21 60.2738C273.21 61.1638 272.65 61.6538 271.94 61.8238V61.8938C272.71 61.9338 273.5 62.5838 273.5 63.6838C273.5 64.7838 272.68 65.6638 271.01 65.6638H268.06V58.3838ZM270.68 61.4838C271.37 61.4838 271.89 61.0838 271.89 60.4438C271.89 59.8838 271.49 59.4738 270.71 59.4738H269.38V61.4838H270.68ZM270.79 64.5638C271.75 64.5638 272.14 64.1538 272.14 63.5838C272.14 62.9338 271.64 62.4338 270.82 62.4338H269.37V64.5638H270.79Z" fill="#667A8F"/>
<path d="M280.54 58.3838V63.1438C280.54 64.7038 279.36 65.7738 277.59 65.7738C275.82 65.7738 274.63 64.7038 274.63 63.1438V58.3838H275.95V63.0338C275.95 63.9438 276.58 64.6038 277.59 64.6038C278.6 64.6038 279.22 63.9538 279.22 63.0338V58.3838H280.54Z" fill="#667A8F"/>
<path d="M282.96 58.3838L284.74 61.6038H284.81L286.59 58.3838H288.08L285.43 62.9538V65.6738H284.11V62.9538L281.46 58.3838H282.95H282.96Z" fill="#667A8F"/>
<path d="M289.01 58.3838H293.75V59.4938H290.33V61.4738H293.5V62.5838H290.33V64.5738H293.78V65.6838H289.02V58.4038L289.01 58.3838Z" fill="#667A8F"/>
<path d="M295.09 58.3838H297.82C299.49 58.3838 300.39 59.3238 300.39 60.7138C300.39 61.7038 299.94 62.4338 299.08 62.7838L300.66 65.6738H299.19L297.76 63.0038H296.42V65.6738H295.1V58.3938L295.09 58.3838ZM297.63 61.9038C298.61 61.9038 299.05 61.4838 299.05 60.7138C299.05 59.9438 298.61 59.4838 297.62 59.4838H296.41V61.9038H297.63Z" fill="#667A8F"/>
<path d="M304.18 59.4034C303.36 59.4034 302.86 59.8034 302.86 60.3534C302.86 60.9634 303.5 61.2134 304.1 61.3534L304.78 61.5234C305.88 61.7834 306.92 62.3534 306.92 63.6234C306.92 64.9034 305.9 65.7734 304.16 65.7734C302.42 65.7734 301.39 64.9634 301.33 63.5134H302.63C302.68 64.2734 303.32 64.6434 304.15 64.6434C304.98 64.6434 305.6 64.2234 305.6 63.6034C305.6 63.0334 305.08 62.7934 304.29 62.5934L303.46 62.3834C302.26 62.0734 301.52 61.4734 301.52 60.4234C301.52 59.1334 302.66 58.2734 304.19 58.2734C305.72 58.2734 306.79 59.1434 306.81 60.3734H305.54C305.47 59.7534 304.95 59.3834 304.17 59.3834L304.18 59.4034Z" fill="#667A8F"/>
<path d="M311.88 65.6638H310.56V58.3838H311.88V65.6638Z" fill="#667A8F"/>
<path d="M319.3 65.6638H318.13L314.7 60.7038H314.64V65.6638H313.32V58.3838H314.5L317.93 63.3438H317.99V58.3838H319.3V65.6638Z" fill="#667A8F"/>
<path d="M325.79 59.4034C324.97 59.4034 324.47 59.8034 324.47 60.3534C324.47 60.9634 325.11 61.2134 325.71 61.3534L326.39 61.5234C327.49 61.7834 328.53 62.3534 328.53 63.6234C328.53 64.9034 327.51 65.7734 325.77 65.7734C324.03 65.7734 323 64.9634 322.94 63.5134H324.24C324.29 64.2734 324.93 64.6434 325.76 64.6434C326.59 64.6434 327.21 64.2234 327.21 63.6034C327.21 63.0334 326.69 62.7934 325.9 62.5934L325.07 62.3834C323.87 62.0734 323.13 61.4734 323.13 60.4234C323.13 59.1334 324.27 58.2734 325.8 58.2734C327.33 58.2734 328.4 59.1434 328.42 60.3734H327.15C327.08 59.7534 326.56 59.3834 325.78 59.3834L325.79 59.4034Z" fill="#667A8F"/>
<path d="M329.69 58.3838H334.43V59.4938H331.01V61.4738H334.18V62.5838H331.01V64.5738H334.46V65.6838H329.7V58.4038L329.69 58.3838Z" fill="#667A8F"/>
<path d="M338.94 59.473C337.76 59.473 336.91 60.383 336.91 62.023C336.91 63.663 337.75 64.583 338.96 64.583C340.06 64.583 340.75 63.923 340.77 62.883H339.09V61.853H342.04V62.733C342.04 64.613 340.75 65.773 338.95 65.773C336.94 65.773 335.58 64.343 335.58 62.043C335.58 59.743 337.01 58.293 338.91 58.293C340.52 58.293 341.76 59.293 341.98 60.713H340.64C340.41 59.943 339.81 59.473 338.93 59.473H338.94Z" fill="#667A8F"/>
<path d="M344.93 58.3838L347.09 63.6638H347.17L349.33 58.3838H350.94V65.6638H349.67V60.6638H349.6L347.59 65.6438H346.64L344.63 60.6538H344.56V65.6638H343.29V58.3838H344.9H344.93Z" fill="#667A8F"/>
<path d="M352.38 58.3838H357.12V59.4938H353.7V61.4738H356.87V62.5838H353.7V64.5738H357.15V65.6838H352.39V58.4038L352.38 58.3838Z" fill="#667A8F"/>
<path d="M364.44 65.6638H363.27L359.84 60.7038H359.78V65.6638H358.46V58.3838H359.64L363.07 63.3438H363.13V58.3838H364.44V65.6638Z" fill="#667A8F"/>
<path d="M365.55 58.3838H371.36V59.4938H369.11V65.6738H367.8V59.4938H365.55V58.3838Z" fill="#667A8F"/>
<path d="M113.15 59.3936H103.12C102.016 59.3936 101.12 60.289 101.12 61.3936V61.5536C101.12 62.6581 102.016 63.5536 103.12 63.5536H113.15C114.255 63.5536 115.15 62.6581 115.15 61.5536V61.3936C115.15 60.289 114.255 59.3936 113.15 59.3936Z" fill="#00C8B7"/>
<path d="M260.27 59.3936H250.24C249.136 59.3936 248.24 60.289 248.24 61.3936V61.5536C248.24 62.6581 249.136 63.5536 250.24 63.5536H260.27C261.375 63.5536 262.27 62.6581 262.27 61.5536V61.3936C262.27 60.289 261.375 59.3936 260.27 59.3936Z" fill="#667A8F"/>
<g filter="url(#filter1_d_474_6202)">
<path d="M571.98 78.7627H72.6899C66.0625 78.7627 60.6899 84.1353 60.6899 90.7627V326.753C60.6899 333.38 66.0625 338.753 72.6899 338.753H571.98C578.607 338.753 583.98 333.38 583.98 326.753V90.7627C583.98 84.1353 578.607 78.7627 571.98 78.7627Z" fill="white"/>
</g>
<path d="M99.9399 98.7725H117.57C119.78 98.7725 121.57 100.562 121.57 102.772V290.702H95.9399V102.772C95.9399 100.562 97.7299 98.7725 99.9399 98.7725Z" fill="#00C8B7"/>
<path opacity="0.5" d="M148.53 98.7725H166.16C168.37 98.7725 170.16 100.562 170.16 102.772V290.702H144.53V102.772C144.53 100.562 146.32 98.7725 148.53 98.7725Z" fill="#E0E4E8"/>
<path opacity="0.5" d="M197.12 98.7725H214.75C216.96 98.7725 218.75 100.562 218.75 102.772V290.702H193.12V102.772C193.12 100.562 194.91 98.7725 197.12 98.7725Z" fill="#E0E4E8"/>
<path opacity="0.5" d="M245.71 98.7725H263.34C265.55 98.7725 267.34 100.562 267.34 102.772V290.702H241.71V102.772C241.71 100.562 243.5 98.7725 245.71 98.7725Z" fill="#E0E4E8"/>
<path opacity="0.5" d="M294.29 98.7725H311.92C314.13 98.7725 315.92 100.562 315.92 102.772V290.702H290.29V102.772C290.29 100.562 292.08 98.7725 294.29 98.7725Z" fill="#E0E4E8"/>
<path opacity="0.5" d="M342.88 98.7725H360.51C362.72 98.7725 364.51 100.562 364.51 102.772V290.702H338.88V102.772C338.88 100.562 340.67 98.7725 342.88 98.7725Z" fill="#E0E4E8"/>
<path opacity="0.5" d="M391.47 98.7725H409.1C411.31 98.7725 413.1 100.562 413.1 102.772V290.702H387.47V102.772C387.47 100.562 389.26 98.7725 391.47 98.7725Z" fill="#E0E4E8"/>
<path opacity="0.5" d="M440.06 98.7725H457.69C459.9 98.7725 461.69 100.562 461.69 102.772V290.702H436.06V102.772C436.06 100.562 437.85 98.7725 440.06 98.7725Z" fill="#E0E4E8"/>
<path opacity="0.5" d="M488.65 98.7725H506.28C508.49 98.7725 510.28 100.562 510.28 102.772V290.702H484.65V102.772C484.65 100.562 486.44 98.7725 488.65 98.7725Z" fill="#E0E4E8"/>
<path opacity="0.5" d="M537.24 98.7725H554.87C557.08 98.7725 558.87 100.562 558.87 102.772V290.702H533.24V102.772C533.24 100.562 535.03 98.7725 537.24 98.7725Z" fill="#E0E4E8"/>
<path d="M170.16 190.112H144.53V290.712H170.16V190.112Z" fill="#00C8B7"/>
<path d="M218.75 225.532H193.12V290.712H218.75V225.532Z" fill="#00C8B7"/>
<path d="M267.34 236.992H241.71V290.702H267.34V236.992Z" fill="#00C8B7"/>
<path d="M315.92 244.633H290.29V290.703H315.92V244.633Z" fill="#00C8B7"/>
<path d="M364.51 256.152H338.88V290.712H364.51V256.152Z" fill="#00C8B7"/>
<path d="M413.27 271.713H387.64V290.713H413.27V271.713Z" fill="#00C8B7"/>
<path d="M461.77 285.242H436.14V290.702H461.77V285.242Z" fill="#00C8B7"/>
<path d="M510.65 289.482H485.02V290.712H510.65V289.482Z" fill="#00C8B7"/>
<path d="M573.2 290.713H76.8901" stroke="#E0E4E8" stroke-miterlimit="10"/>
<path d="M108.76 98.7725C127 99.3825 143.37 100.462 157.56 101.692C179.79 103.612 183.31 104.742 205.93 106.592C236.94 109.132 237.41 107.602 254.52 110.012C277.54 113.252 294.98 118.602 303.11 121.302C314.71 125.152 332.32 131.102 351.7 142.982C356.52 145.942 366.48 152.352 400.45 184.882C424.88 208.282 447.55 231.612 448.96 233.062C478.44 263.442 483.41 270.352 497.47 277.912C515.87 287.802 533.87 290.212 546.06 290.732" stroke="#334E69" stroke-miterlimit="10"/>
<path d="M76.8901 98.7725V290.712" stroke="#E0E4E8" stroke-miterlimit="10"/>
<path d="M74.6997 98.7725H78.4497" stroke="#E0E4E8" stroke-miterlimit="10"/>
<path d="M74.6997 146.373H78.4497" stroke="#E0E4E8" stroke-miterlimit="10"/>
<path d="M74.6997 194.743H78.4497" stroke="#E0E4E8" stroke-miterlimit="10"/>
<path d="M74.6997 242.673H78.4497" stroke="#E0E4E8" stroke-miterlimit="10"/>
<path d="M547.88 304.782H110.7" stroke="#E0E4E8" stroke-miterlimit="10"/>
<path d="M108.76 306.733C109.837 306.733 110.71 305.86 110.71 304.783C110.71 303.706 109.837 302.833 108.76 302.833C107.683 302.833 106.81 303.706 106.81 304.783C106.81 305.86 107.683 306.733 108.76 306.733Z" fill="white" stroke="#E0E4E8" stroke-miterlimit="10"/>
<path d="M157.35 309.412C159.907 309.412 161.98 307.339 161.98 304.782C161.98 302.225 159.907 300.152 157.35 300.152C154.793 300.152 152.72 302.225 152.72 304.782C152.72 307.339 154.793 309.412 157.35 309.412Z" fill="#00C8B7" stroke="#E0E4E8" stroke-miterlimit="10"/>
<path d="M205.93 306.733C207.007 306.733 207.88 305.86 207.88 304.783C207.88 303.706 207.007 302.833 205.93 302.833C204.853 302.833 203.98 303.706 203.98 304.783C203.98 305.86 204.853 306.733 205.93 306.733Z" fill="white" stroke="#E0E4E8" stroke-miterlimit="10"/>
<path d="M255.25 306.733C256.327 306.733 257.2 305.86 257.2 304.783C257.2 303.706 256.327 302.833 255.25 302.833C254.173 302.833 253.3 303.706 253.3 304.783C253.3 305.86 254.173 306.733 255.25 306.733Z" fill="white" stroke="#E0E4E8" stroke-miterlimit="10"/>
<path d="M303.46 306.733C304.537 306.733 305.41 305.86 305.41 304.783C305.41 303.706 304.537 302.833 303.46 302.833C302.383 302.833 301.51 303.706 301.51 304.783C301.51 305.86 302.383 306.733 303.46 306.733Z" fill="white" stroke="#E0E4E8" stroke-miterlimit="10"/>
<path d="M352.35 306.733C353.427 306.733 354.3 305.86 354.3 304.783C354.3 303.706 353.427 302.833 352.35 302.833C351.273 302.833 350.4 303.706 350.4 304.783C350.4 305.86 351.273 306.733 352.35 306.733Z" fill="white" stroke="#E0E4E8" stroke-miterlimit="10"/>
<path d="M400.45 306.733C401.527 306.733 402.4 305.86 402.4 304.783C402.4 303.706 401.527 302.833 400.45 302.833C399.373 302.833 398.5 303.706 398.5 304.783C398.5 305.86 399.373 306.733 400.45 306.733Z" fill="white" stroke="#E0E4E8" stroke-miterlimit="10"/>
<path d="M449.83 306.733C450.907 306.733 451.78 305.86 451.78 304.783C451.78 303.706 450.907 302.833 449.83 302.833C448.753 302.833 447.88 303.706 447.88 304.783C447.88 305.86 448.753 306.733 449.83 306.733Z" fill="white" stroke="#E0E4E8" stroke-miterlimit="10"/>
<path d="M497.84 306.733C498.917 306.733 499.79 305.86 499.79 304.783C499.79 303.706 498.917 302.833 497.84 302.833C496.763 302.833 495.89 303.706 495.89 304.783C495.89 305.86 496.763 306.733 497.84 306.733Z" fill="white" stroke="#E0E4E8" stroke-miterlimit="10"/>
<path d="M546.77 306.733C547.847 306.733 548.72 305.86 548.72 304.783C548.72 303.706 547.847 302.833 546.77 302.833C545.693 302.833 544.82 303.706 544.82 304.783C544.82 305.86 545.693 306.733 546.77 306.733Z" fill="white" stroke="#E0E4E8" stroke-miterlimit="10"/>
<path d="M106.24 320.013C106.24 317.633 107.3 316.263 109.05 316.263C110.8 316.263 111.85 317.633 111.85 320.013C111.85 322.393 110.8 323.793 109.05 323.783C107.29 323.783 106.24 322.393 106.24 320.013ZM110.52 320.013C110.52 318.283 109.95 317.363 109.05 317.363C108.15 317.363 107.58 318.273 107.58 320.013C107.58 321.763 108.15 322.673 109.05 322.673C109.95 322.673 110.52 321.763 110.52 320.013Z" fill="#667A8F"/>
<path d="M158.55 323.642H157.23V317.642H157.19L155.49 318.732V317.522L157.3 316.362H158.55V323.642Z" fill="#667A8F"/>
<path d="M203.47 322.693L206 320.213C206.72 319.483 207.09 319.053 207.09 318.443C207.09 317.753 206.57 317.333 205.88 317.333C205.19 317.333 204.69 317.803 204.69 318.543H203.44C203.44 317.163 204.46 316.263 205.91 316.263C207.36 316.263 208.37 317.153 208.37 318.373C208.37 319.193 207.98 319.853 206.56 321.213L205.31 322.493V322.543H208.48V323.643H203.49V322.693H203.47Z" fill="#667A8F"/>
<path d="M252.59 321.663H253.93C253.96 322.253 254.53 322.633 255.26 322.633C256.04 322.633 256.6 322.193 256.59 321.553C256.59 320.893 256.05 320.433 255.13 320.433H254.49V319.413H255.13C255.88 319.413 256.41 318.993 256.41 318.353C256.41 317.743 255.96 317.333 255.28 317.333C254.6 317.333 254.04 317.713 254.02 318.323H252.75C252.78 317.103 253.87 316.263 255.29 316.263C256.71 316.263 257.69 317.173 257.69 318.283C257.69 319.103 257.16 319.683 256.37 319.863V319.923C257.39 320.073 257.96 320.723 257.96 321.633C257.96 322.863 256.83 323.753 255.27 323.753C253.71 323.753 252.64 322.903 252.6 321.673L252.59 321.663Z" fill="#667A8F"/>
<path d="M300.65 321.242L303.74 316.362H305.38V321.212H306.31V322.292H305.38V323.642H304.12V322.292H300.65V321.242ZM304.14 317.852H304.08L302 321.152V321.212H304.14V317.862V317.852Z" fill="#667A8F"/>
<path d="M349.85 321.662H351.13C351.18 322.262 351.71 322.672 352.36 322.672C353.14 322.672 353.7 322.092 353.7 321.282C353.7 320.452 353.13 319.862 352.33 319.862C351.89 319.862 351.43 320.042 351.19 320.312L350 320.112L350.38 316.362H354.6V317.462H351.47L351.26 319.392H351.3C351.57 319.072 352.09 318.842 352.68 318.842C354 318.842 354.98 319.852 354.98 321.252C354.98 322.652 353.91 323.742 352.37 323.742C350.95 323.742 349.89 322.872 349.86 321.662H349.85Z" fill="#667A8F"/>
<path d="M397.75 320.213C397.75 317.723 398.86 316.263 400.61 316.263C401.99 316.263 402.93 317.153 403.09 318.323H401.79C401.65 317.763 401.23 317.403 400.61 317.403C399.6 317.403 399.04 318.333 399.03 319.863H399.08C399.43 319.233 400.12 318.853 400.9 318.853C402.18 318.853 403.16 319.853 403.15 321.223C403.15 322.663 402.1 323.743 400.53 323.733C399.13 323.733 397.75 322.873 397.75 320.203V320.213ZM401.87 321.263C401.87 320.483 401.31 319.873 400.54 319.873C399.77 319.873 399.18 320.513 399.17 321.273C399.17 322.033 399.74 322.673 400.52 322.673C401.3 322.673 401.87 322.053 401.87 321.253V321.263Z" fill="#667A8F"/>
<path d="M450.91 317.512V317.462H447.32V316.362H452.28V317.492L449.19 323.642H447.82L450.92 317.512H450.91Z" fill="#667A8F"/>
<path d="M495.13 321.692C495.13 320.782 495.79 320.022 496.65 319.882V319.832C495.9 319.672 495.4 319.002 495.4 318.222C495.4 317.102 496.43 316.272 497.84 316.272C499.25 316.272 500.27 317.102 500.28 318.222C500.28 319.012 499.76 319.672 499.03 319.832V319.882C499.88 320.022 500.55 320.782 500.55 321.692C500.55 322.872 499.42 323.742 497.84 323.742C496.26 323.742 495.13 322.872 495.13 321.692ZM499.19 321.602C499.19 320.912 498.61 320.412 497.84 320.412C497.07 320.412 496.48 320.902 496.49 321.602C496.49 322.272 497.02 322.732 497.84 322.732C498.66 322.732 499.18 322.272 499.19 321.602ZM498.99 318.342C498.99 317.712 498.52 317.302 497.84 317.302C497.16 317.302 496.68 317.722 496.69 318.342C496.69 318.972 497.17 319.412 497.84 319.412C498.51 319.412 498.98 318.982 498.99 318.342Z" fill="#667A8F"/>
<path d="M549.48 319.783C549.48 322.293 548.37 323.743 546.63 323.743C545.25 323.743 544.3 322.863 544.15 321.663H545.45C545.58 322.243 546 322.603 546.63 322.603C547.64 322.603 548.2 321.673 548.2 320.113H548.15C547.8 320.743 547.12 321.123 546.33 321.123C545.05 321.123 544.08 320.133 544.07 318.763C544.07 317.343 545.12 316.253 546.7 316.263C548.1 316.263 549.48 317.123 549.48 319.783ZM545.35 318.733C545.35 319.513 545.91 320.123 546.69 320.123C547.47 320.123 548.06 319.473 548.06 318.723C548.06 317.983 547.49 317.333 546.71 317.333C545.93 317.333 545.36 317.953 545.36 318.733H545.35Z" fill="#667A8F"/>
<path d="M108.76 100.722C109.837 100.722 110.71 99.8492 110.71 98.7723C110.71 97.6953 109.837 96.8223 108.76 96.8223C107.683 96.8223 106.81 97.6953 106.81 98.7723C106.81 99.8492 107.683 100.722 108.76 100.722Z" fill="white" stroke="#334E69" stroke-miterlimit="10"/>
<path d="M159.29 101.673C159.29 102.753 158.42 103.623 157.34 103.623C156.26 103.623 155.39 102.753 155.39 101.673C155.39 100.593 156.26 99.7227 157.34 99.7227C158.42 99.7227 159.29 100.593 159.29 101.673Z" fill="white" stroke="#334E69" stroke-miterlimit="10"/>
<path d="M205.93 108.543C207.007 108.543 207.88 107.67 207.88 106.593C207.88 105.516 207.007 104.643 205.93 104.643C204.853 104.643 203.98 105.516 203.98 106.593C203.98 107.67 204.853 108.543 205.93 108.543Z" fill="white" stroke="#334E69" stroke-miterlimit="10"/>
<path d="M254.52 111.953C255.597 111.953 256.47 111.08 256.47 110.003C256.47 108.926 255.597 108.053 254.52 108.053C253.443 108.053 252.57 108.926 252.57 110.003C252.57 111.08 253.443 111.953 254.52 111.953Z" fill="white" stroke="#334E69" stroke-miterlimit="10"/>
<path d="M303.11 123.243C304.187 123.243 305.06 122.37 305.06 121.293C305.06 120.216 304.187 119.343 303.11 119.343C302.033 119.343 301.16 120.216 301.16 121.293C301.16 122.37 302.033 123.243 303.11 123.243Z" fill="white" stroke="#334E69" stroke-miterlimit="10"/>
<path d="M351.7 144.922C352.777 144.922 353.65 144.049 353.65 142.972C353.65 141.896 352.777 141.022 351.7 141.022C350.623 141.022 349.75 141.896 349.75 142.972C349.75 144.049 350.623 144.922 351.7 144.922Z" fill="white" stroke="#334E69" stroke-miterlimit="10"/>
<path d="M400.45 186.823C401.527 186.823 402.4 185.95 402.4 184.873C402.4 183.796 401.527 182.923 400.45 182.923C399.373 182.923 398.5 183.796 398.5 184.873C398.5 185.95 399.373 186.823 400.45 186.823Z" fill="white" stroke="#334E69" stroke-miterlimit="10"/>
<path d="M448.96 235.003C450.037 235.003 450.91 234.129 450.91 233.053C450.91 231.976 450.037 231.103 448.96 231.103C447.883 231.103 447.01 231.976 447.01 233.053C447.01 234.129 447.883 235.003 448.96 235.003Z" fill="white" stroke="#334E69" stroke-miterlimit="10"/>
<path d="M497.47 279.842C498.547 279.842 499.42 278.969 499.42 277.892C499.42 276.815 498.547 275.942 497.47 275.942C496.393 275.942 495.52 276.815 495.52 277.892C495.52 278.969 496.393 279.842 497.47 279.842Z" fill="white" stroke="#334E69" stroke-miterlimit="10"/>
<path d="M546.05 292.663C547.127 292.663 548 291.79 548 290.713C548 289.636 547.127 288.763 546.05 288.763C544.973 288.763 544.1 289.636 544.1 290.713C544.1 291.79 544.973 292.663 546.05 292.663Z" fill="white" stroke="#334E69" stroke-miterlimit="10"/>
<g filter="url(#filter2_d_474_6202)">
<path d="M547.65 61.3926H389.92C386.606 61.3926 383.92 64.0789 383.92 67.3926V196.263C383.92 199.576 386.606 202.263 389.92 202.263H547.65C550.964 202.263 553.65 199.576 553.65 196.263V67.3926C553.65 64.0789 550.964 61.3926 547.65 61.3926Z" fill="white"/>
</g>
<g opacity="0.5">
<path d="M408.93 83.0728H409.01L410.9 77.3428H412.35L409.78 84.6228H408.15L405.59 77.3428H407.04L408.93 83.0728Z" fill="#667A8F"/>
<path d="M414.62 84.6228H413.3V77.3428H414.62V84.6228Z" fill="#667A8F"/>
<path d="M418.63 78.3624C417.81 78.3624 417.31 78.7624 417.31 79.3124C417.31 79.9224 417.95 80.1724 418.55 80.3124L419.23 80.4824C420.33 80.7424 421.37 81.3124 421.37 82.5824C421.37 83.8624 420.35 84.7324 418.61 84.7324C416.87 84.7324 415.84 83.9224 415.78 82.4724H417.08C417.13 83.2324 417.77 83.6024 418.6 83.6024C419.43 83.6024 420.05 83.1824 420.05 82.5624C420.05 81.9924 419.53 81.7524 418.74 81.5524L417.91 81.3424C416.71 81.0324 415.97 80.4324 415.97 79.3824C415.97 78.0924 417.11 77.2324 418.64 77.2324C420.17 77.2324 421.24 78.1024 421.26 79.3324H419.99C419.92 78.7124 419.4 78.3424 418.62 78.3424L418.63 78.3624Z" fill="#667A8F"/>
<path d="M423.86 84.6228H422.54V77.3428H423.86V84.6228Z" fill="#667A8F"/>
<path d="M424.97 77.3428H430.78V78.4528H428.53V84.6328H427.22V78.4528H424.97V77.3428Z" fill="#667A8F"/>
<path d="M434.73 84.7222C432.82 84.7222 431.38 83.3322 431.38 80.9822C431.38 78.6322 432.81 77.2422 434.73 77.2422C436.65 77.2422 438.08 78.6322 438.08 80.9822C438.08 83.3322 436.64 84.7222 434.73 84.7222ZM434.73 78.4222C433.55 78.4222 432.71 79.3222 432.71 80.9822C432.71 82.6422 433.55 83.5422 434.73 83.5422C435.91 83.5422 436.75 82.6422 436.75 80.9822C436.75 79.3222 435.92 78.4222 434.73 78.4222Z" fill="#667A8F"/>
<path d="M439.32 77.3428H442.05C443.72 77.3428 444.62 78.2828 444.62 79.6728C444.62 80.6628 444.17 81.3928 443.31 81.7428L444.89 84.6328H443.42L441.99 81.9628H440.65V84.6328H439.33V77.3528L439.32 77.3428ZM441.86 80.8628C442.84 80.8628 443.28 80.4428 443.28 79.6728C443.28 78.9028 442.84 78.4428 441.85 78.4428H440.64V80.8628H441.86Z" fill="#667A8F"/>
<path d="M448.41 78.3624C447.59 78.3624 447.09 78.7624 447.09 79.3124C447.09 79.9224 447.73 80.1724 448.33 80.3124L449.01 80.4824C450.11 80.7424 451.15 81.3124 451.15 82.5824C451.15 83.8624 450.13 84.7324 448.39 84.7324C446.65 84.7324 445.62 83.9224 445.56 82.4724H446.86C446.91 83.2324 447.55 83.6024 448.38 83.6024C449.21 83.6024 449.83 83.1824 449.83 82.5624C449.83 81.9924 449.31 81.7524 448.52 81.5524L447.69 81.3424C446.49 81.0324 445.75 80.4324 445.75 79.3824C445.75 78.0924 446.89 77.2324 448.42 77.2324C449.95 77.2324 451.02 78.1024 451.04 79.3324H449.77C449.7 78.7124 449.18 78.3424 448.4 78.3424L448.41 78.3624Z" fill="#667A8F"/>
</g>
<g opacity="0.5">
<path d="M416.13 123.743H418.05C418.12 124.633 418.91 125.263 419.9 125.263C421.07 125.263 421.91 124.393 421.9 123.173C421.9 121.933 421.04 121.052 419.85 121.052C419.19 121.052 418.5 121.323 418.14 121.723L416.36 121.433L416.93 115.812H423.26V117.463H418.57L418.26 120.353H418.32C418.73 119.873 419.51 119.522 420.39 119.522C422.37 119.522 423.83 121.032 423.83 123.132C423.83 125.232 422.22 126.863 419.92 126.863C417.79 126.863 416.21 125.563 416.16 123.743H416.13Z" fill="#667A8F"/>
<path d="M425.59 125.272L429.38 121.562C430.46 120.472 431.01 119.822 431.01 118.912C431.01 117.882 430.24 117.252 429.2 117.252C428.16 117.252 427.41 117.952 427.41 119.062H425.53C425.53 116.992 427.06 115.652 429.23 115.652C431.4 115.652 432.91 116.992 432.91 118.812C432.91 120.042 432.32 121.032 430.2 123.072L428.32 124.982V125.062H433.07V126.712H425.59V125.282V125.272Z" fill="#667A8F"/>
<path d="M435.2 117.842C435.2 116.562 436.04 115.492 437.51 115.492C438.98 115.492 439.81 116.562 439.81 117.842V118.422C439.81 119.702 439 120.762 437.51 120.762C436.02 120.762 435.2 119.692 435.2 118.422V117.842ZM443.3 115.802H444.64L437.14 126.712H435.8L443.3 115.802ZM436.6 118.422C436.6 118.982 436.83 119.542 437.51 119.542C438.19 119.542 438.41 118.982 438.41 118.422V117.842C438.41 117.282 438.21 116.712 437.51 116.712C436.81 116.712 436.6 117.292 436.6 117.842V118.422ZM440.74 124.092C440.74 122.822 441.57 121.742 443.05 121.742C444.53 121.742 445.36 122.812 445.36 124.092V124.672C445.36 125.942 444.55 127.022 443.05 127.022C441.55 127.022 440.74 125.942 440.74 124.672V124.092ZM442.13 124.672C442.13 125.232 442.36 125.792 443.05 125.792C443.74 125.792 443.96 125.232 443.96 124.672V124.092C443.96 123.532 443.76 122.962 443.05 122.962C442.34 122.962 442.13 123.532 442.13 124.092V124.672Z" fill="#667A8F"/>
</g>
<g opacity="0.5">
<path d="M500.39 120.912C500.39 124.662 498.73 126.852 496.11 126.852C494.04 126.852 492.62 125.532 492.39 123.732H494.33C494.53 124.602 495.16 125.142 496.1 125.142C497.61 125.142 498.45 123.752 498.46 121.422H498.39C497.86 122.362 496.84 122.932 495.66 122.932C493.75 122.932 492.28 121.442 492.28 119.392C492.28 117.262 493.85 115.642 496.22 115.652C498.31 115.662 500.38 116.942 500.38 120.922L500.39 120.912ZM494.21 119.342C494.21 120.512 495.05 121.422 496.21 121.422C497.37 121.422 498.26 120.452 498.25 119.322C498.25 118.212 497.39 117.242 496.23 117.242C495.07 117.242 494.21 118.172 494.21 119.342Z" fill="#667A8F"/>
<path d="M501.99 121.562C501.99 117.832 503.65 115.652 506.27 115.652C508.33 115.652 509.75 116.982 509.99 118.742H508.05C507.85 117.902 507.21 117.362 506.28 117.362C504.77 117.362 503.93 118.752 503.92 121.052H503.99C504.51 120.112 505.55 119.542 506.72 119.542C508.63 119.542 510.1 121.032 510.1 123.092C510.1 125.252 508.52 126.872 506.17 126.852C504.08 126.842 502 125.562 502.01 121.562H501.99ZM508.17 123.142C508.17 121.972 507.33 121.052 506.17 121.052C505.01 121.052 504.13 122.012 504.12 123.152C504.12 124.292 504.98 125.252 506.14 125.252C507.3 125.252 508.17 124.322 508.16 123.132L508.17 123.142Z" fill="#667A8F"/>
<path d="M512.17 117.842C512.17 116.562 513.01 115.492 514.48 115.492C515.95 115.492 516.78 116.562 516.78 117.842V118.422C516.78 119.702 515.97 120.762 514.48 120.762C512.99 120.762 512.17 119.692 512.17 118.422V117.842ZM520.27 115.802H521.61L514.11 126.712H512.77L520.27 115.802ZM513.57 118.422C513.57 118.982 513.8 119.542 514.48 119.542C515.16 119.542 515.38 118.982 515.38 118.422V117.842C515.38 117.282 515.18 116.712 514.48 116.712C513.78 116.712 513.57 117.292 513.57 117.842V118.422ZM517.71 124.092C517.71 122.822 518.54 121.742 520.02 121.742C521.5 121.742 522.33 122.812 522.33 124.092V124.672C522.33 125.942 521.52 127.022 520.02 127.022C518.52 127.022 517.71 125.942 517.71 124.672V124.092ZM519.1 124.672C519.1 125.232 519.33 125.792 520.02 125.792C520.71 125.792 520.93 125.232 520.93 124.672V124.092C520.93 123.532 520.73 122.962 520.02 122.962C519.31 122.962 519.1 123.532 519.1 124.092V124.672Z" fill="#667A8F"/>
</g>
<g opacity="0.5">
<path d="M485.54 77.3428H488.33C489.91 77.3428 490.69 78.1428 490.69 79.2328C490.69 80.1228 490.13 80.6128 489.42 80.7828V80.8528C490.19 80.8928 490.98 81.5428 490.98 82.6428C490.98 83.7428 490.16 84.6228 488.49 84.6228H485.54V77.3428ZM488.16 80.4428C488.85 80.4428 489.37 80.0428 489.37 79.4028C489.37 78.8428 488.97 78.4328 488.19 78.4328H486.86V80.4428H488.16ZM488.27 83.5228C489.23 83.5228 489.62 83.1128 489.62 82.5428C489.62 81.8928 489.12 81.3928 488.3 81.3928H486.85V83.5228H488.27Z" fill="#667A8F"/>
<path d="M498.02 77.3428V82.1028C498.02 83.6628 496.84 84.7328 495.07 84.7328C493.3 84.7328 492.11 83.6628 492.11 82.1028V77.3428H493.43V81.9928C493.43 82.9028 494.06 83.5628 495.07 83.5628C496.08 83.5628 496.7 82.9128 496.7 81.9928V77.3428H498.02Z" fill="#667A8F"/>
<path d="M500.44 77.3428L502.22 80.5628H502.29L504.07 77.3428H505.56L502.91 81.9128V84.6328H501.59V81.9128L498.94 77.3428H500.43H500.44Z" fill="#667A8F"/>
<path d="M506.49 77.3428H511.23V78.4528H507.81V80.4328H510.98V81.5428H507.81V83.5328H511.26V84.6428H506.5V77.3628L506.49 77.3428Z" fill="#667A8F"/>
<path d="M512.57 77.3428H515.3C516.97 77.3428 517.87 78.2828 517.87 79.6728C517.87 80.6628 517.42 81.3928 516.56 81.7428L518.14 84.6328H516.67L515.24 81.9628H513.9V84.6328H512.58V77.3528L512.57 77.3428ZM515.11 80.8628C516.09 80.8628 516.53 80.4428 516.53 79.6728C516.53 78.9028 516.09 78.4428 515.1 78.4428H513.89V80.8628H515.11Z" fill="#667A8F"/>
<path d="M521.66 78.3624C520.84 78.3624 520.34 78.7624 520.34 79.3124C520.34 79.9224 520.98 80.1724 521.58 80.3124L522.26 80.4824C523.36 80.7424 524.4 81.3124 524.4 82.5824C524.4 83.8624 523.38 84.7324 521.64 84.7324C519.9 84.7324 518.87 83.9224 518.81 82.4724H520.11C520.16 83.2324 520.8 83.6024 521.63 83.6024C522.46 83.6024 523.08 83.1824 523.08 82.5624C523.08 81.9924 522.56 81.7524 521.77 81.5524L520.94 81.3424C519.74 81.0324 519 80.4324 519 79.3824C519 78.0924 520.14 77.2324 521.67 77.2324C523.2 77.2324 524.27 78.1024 524.29 79.3324H523.02C522.95 78.7124 522.43 78.3424 521.65 78.3424L521.66 78.3624Z" fill="#667A8F"/>
</g>
<path opacity="0.1" d="M506.4 145.483C520.246 145.483 531.47 134.259 531.47 120.413C531.47 106.567 520.246 95.3428 506.4 95.3428C492.554 95.3428 481.33 106.567 481.33 120.413C481.33 134.259 492.554 145.483 506.4 145.483Z" stroke="#667A8F" stroke-width="2" stroke-miterlimit="10"/>
<path d="M530.26 128.123C527.01 138.193 517.56 145.483 506.4 145.483C492.56 145.483 481.33 134.263 481.33 120.413C481.33 106.563 492.55 95.3428 506.4 95.3428C520.25 95.3428 531.47 106.563 531.47 120.413" stroke="#667A8F" stroke-width="2" stroke-miterlimit="10" stroke-linecap="round"/>
<path opacity="0.1" d="M429.73 145.483C443.576 145.483 454.8 134.259 454.8 120.413C454.8 106.567 443.576 95.3428 429.73 95.3428C415.884 95.3428 404.66 106.567 404.66 120.413C404.66 134.259 415.884 145.483 429.73 145.483Z" stroke="#667A8F" stroke-width="2" stroke-miterlimit="10"/>
<path d="M404.91 123.903C404.75 122.763 404.67 121.593 404.67 120.413C404.67 106.573 415.89 95.3428 429.74 95.3428C443.59 95.3428 454.81 106.563 454.81 120.413" stroke="#00C8B7" stroke-width="2" stroke-miterlimit="10" stroke-linecap="round"/>
<g filter="url(#filter3_d_474_6202)">
<path d="M508.69 169.662H503.48C500.166 169.662 497.48 172.348 497.48 175.662V180.872C497.48 184.186 500.166 186.872 503.48 186.872H508.69C512.004 186.872 514.69 184.186 514.69 180.872V175.662C514.69 172.348 512.004 169.662 508.69 169.662Z" fill="#00C8B7"/>
</g>
<g opacity="0.5">
<path d="M429.5 176.643V181.403C429.5 182.963 428.32 184.033 426.55 184.033C424.78 184.033 423.59 182.963 423.59 181.403V176.643H424.91V181.293C424.91 182.203 425.54 182.863 426.55 182.863C427.56 182.863 428.18 182.213 428.18 181.293V176.643H429.5Z" fill="#667A8F"/>
<path d="M430.93 176.643H433.66C435.33 176.643 436.23 177.663 436.23 179.053C436.23 180.443 435.33 181.463 433.65 181.463H432.26V183.923H430.94V176.643H430.93ZM433.47 180.383C434.45 180.383 434.89 179.833 434.89 179.053C434.89 178.273 434.45 177.743 433.46 177.743H432.25V180.373H433.47V180.383Z" fill="#667A8F"/>
<path d="M437.36 176.643H438.68V182.823H441.89V183.933H437.36V176.653V176.643Z" fill="#667A8F"/>
<path d="M444.34 183.923H443.02V176.643H444.34V183.923Z" fill="#667A8F"/>
<path d="M445.77 176.643H450.44V177.753H447.09V179.733H450.12V180.843H447.09V183.933H445.77V176.653V176.643Z" fill="#667A8F"/>
<path d="M451.31 176.643H457.12V177.753H454.87V183.933H453.56V177.753H451.31V176.643Z" fill="#667A8F"/>
<path d="M457.78 178.663C457.78 178.233 458.13 177.883 458.56 177.883C458.99 177.883 459.34 178.233 459.34 178.663C459.34 179.093 458.98 179.443 458.56 179.443C458.14 179.443 457.77 179.093 457.78 178.663ZM457.78 182.273C457.78 181.843 458.13 181.503 458.56 181.503C458.99 181.503 459.34 181.853 459.34 182.273C459.34 182.703 458.98 183.053 458.56 183.053C458.14 183.053 457.77 182.703 457.78 182.273Z" fill="#667A8F"/>
</g>
<g opacity="0.5">
<path d="M469.98 183.922H468V174.942H467.94L465.39 176.572V174.762L468.1 173.022H469.98V183.932V183.922Z" fill="#667A8F"/>
<path d="M472.19 182.872C472.19 182.232 472.71 181.712 473.36 181.712C474.01 181.712 474.53 182.232 474.53 182.872C474.53 183.522 473.99 184.042 473.36 184.042C472.73 184.042 472.18 183.522 472.19 182.872Z" fill="#667A8F"/>
<path d="M484.29 178.132C484.29 181.882 482.63 184.072 480.01 184.072C477.94 184.072 476.52 182.752 476.29 180.952H478.23C478.43 181.822 479.06 182.362 480 182.362C481.51 182.362 482.35 180.972 482.36 178.642H482.29C481.76 179.582 480.74 180.152 479.56 180.152C477.65 180.152 476.18 178.662 476.18 176.612C476.18 174.482 477.75 172.862 480.12 172.872C482.21 172.882 484.28 174.162 484.28 178.142L484.29 178.132ZM478.11 176.562C478.11 177.732 478.95 178.642 480.11 178.642C481.27 178.642 482.16 177.672 482.15 176.542C482.15 175.432 481.29 174.462 480.13 174.462C478.97 174.462 478.11 175.392 478.11 176.562Z" fill="#667A8F"/>
<path d="M489.31 178.762L490.99 175.742H493.03L490.56 179.832L493.07 183.922H491.04L489.31 180.972L487.6 183.922H485.56L488.05 179.832L485.62 175.742H487.66L489.31 178.762Z" fill="#667A8F"/>
</g>
<path d="M505.66 176.432L503.25 178.852L502.36 177.972L506.29 174.052L510.21 177.972L509.34 178.852L506.92 176.432V182.822H505.65V176.432H505.66Z" fill="white"/>
<path opacity="0.3" d="M383.92 158.333H553.65" stroke="#C6C6C6" stroke-width="0.5" stroke-miterlimit="10"/>
</g>
<defs>
<filter id="filter0_d_474_6202" x="34.02" y="-27.417" width="574.92" height="428.69" filterUnits="userSpaceOnUse" color-interpolation-filters="sRGB">
<feFlood flood-opacity="0" result="BackgroundImageFix"/>
<feColorMatrix in="SourceAlpha" type="matrix" values="0 0 0 0 0 0 0 0 0 0 0 0 0 0 0 0 0 0 127 0" result="hardAlpha"/>
<feOffset/>
<feGaussianBlur stdDeviation="20"/>
<feColorMatrix type="matrix" values="0 0 0 0 0 0 0 0 0 0.0941176 0 0 0 0 0.188235 0 0 0 0.15 0"/>
<feBlend mode="normal" in2="BackgroundImageFix" result="effect1_dropShadow_474_6202"/>
<feBlend mode="normal" in="SourceGraphic" in2="effect1_dropShadow_474_6202" result="shape"/>
</filter>
<filter id="filter1_d_474_6202" x="20.6899" y="38.7627" width="603.29" height="339.99" filterUnits="userSpaceOnUse" color-interpolation-filters="sRGB">
<feFlood flood-opacity="0" result="BackgroundImageFix"/>
<feColorMatrix in="SourceAlpha" type="matrix" values="0 0 0 0 0 0 0 0 0 0 0 0 0 0 0 0 0 0 127 0" result="hardAlpha"/>
<feOffset/>
<feGaussianBlur stdDeviation="20"/>
<feColorMatrix type="matrix" values="0 0 0 0 0 0 0 0 0 0.0941176 0 0 0 0 0.188235 0 0 0 0.15 0"/>
<feBlend mode="normal" in2="BackgroundImageFix" result="effect1_dropShadow_474_6202"/>
<feBlend mode="normal" in="SourceGraphic" in2="effect1_dropShadow_474_6202" result="shape"/>
</filter>
<filter id="filter2_d_474_6202" x="343.92" y="21.3926" width="249.73" height="220.87" filterUnits="userSpaceOnUse" color-interpolation-filters="sRGB">
<feFlood flood-opacity="0" result="BackgroundImageFix"/>
<feColorMatrix in="SourceAlpha" type="matrix" values="0 0 0 0 0 0 0 0 0 0 0 0 0 0 0 0 0 0 127 0" result="hardAlpha"/>
<feOffset/>
<feGaussianBlur stdDeviation="20"/>
<feColorMatrix type="matrix" values="0 0 0 0 0 0 0 0 0 0.0941176 0 0 0 0 0.188235 0 0 0 0.15 0"/>
<feBlend mode="normal" in2="BackgroundImageFix" result="effect1_dropShadow_474_6202"/>
<feBlend mode="normal" in="SourceGraphic" in2="effect1_dropShadow_474_6202" result="shape"/>
</filter>
<filter id="filter3_d_474_6202" x="457.48" y="129.662" width="97.21" height="97.21" filterUnits="userSpaceOnUse" color-interpolation-filters="sRGB">
<feFlood flood-opacity="0" result="BackgroundImageFix"/>
<feColorMatrix in="SourceAlpha" type="matrix" values="0 0 0 0 0 0 0 0 0 0 0 0 0 0 0 0 0 0 127 0" result="hardAlpha"/>
<feOffset/>
<feGaussianBlur stdDeviation="20"/>
<feColorMatrix type="matrix" values="0 0 0 0 0 0 0 0 0 0.0941176 0 0 0 0 0.188235 0 0 0 0.15 0"/>
<feBlend mode="normal" in2="BackgroundImageFix" result="effect1_dropShadow_474_6202"/>
<feBlend mode="normal" in="SourceGraphic" in2="effect1_dropShadow_474_6202" result="shape"/>
</filter>
<clipPath id="clip0_474_6202">
<rect width="644" height="398" fill="white" transform="translate(0 0.783203)"/>
</clipPath>
</defs>
</svg>
