<svg width="653" height="386" viewBox="0 0 653 386" fill="none" xmlns="http://www.w3.org/2000/svg">
<g clip-path="url(#clip0_474_6203)">
<g filter="url(#filter0_d_474_6203)">
<path d="M512 0.283203H49.0801C40.2435 0.283203 33.0801 7.44665 33.0801 16.2832V332.973C33.0801 341.81 40.2435 348.973 49.0801 348.973H512C520.837 348.973 528 341.81 528 332.973V16.2832C528 7.44665 520.837 0.283203 512 0.283203Z" fill="#F1F2F4"/>
</g>
<path d="M510.76 5.91309H50.3101C43.6826 5.91309 38.3101 11.2857 38.3101 17.9131V331.343C38.3101 337.97 43.6826 343.343 50.3101 343.343H510.76C517.387 343.343 522.76 337.97 522.76 331.343V17.9131C522.76 11.2857 517.387 5.91309 510.76 5.91309Z" fill="white"/>
<mask id="mask0_474_6203" style="mask-type:luminance" maskUnits="userSpaceOnUse" x="38" y="5" width="485" height="339">
<path d="M510.76 5.91309H50.3101C43.6826 5.91309 38.3101 11.2857 38.3101 17.9131V331.343C38.3101 337.97 43.6826 343.343 50.3101 343.343H510.76C517.387 343.343 522.76 337.97 522.76 331.343V17.9131C522.76 11.2857 517.387 5.91309 510.76 5.91309Z" fill="white"/>
</mask>
<g mask="url(#mask0_474_6203)">
<path d="M522.76 5.91309H38.3101V32.6031H522.76V5.91309Z" fill="#001830"/>
</g>
<g filter="url(#filter1_d_474_6203)">
<path d="M227.36 67.5732H66.8198C63.5061 67.5732 60.8198 70.2595 60.8198 73.5732V128.833C60.8198 132.147 63.5061 134.833 66.8198 134.833H227.36C230.674 134.833 233.36 132.147 233.36 128.833V73.5732C233.36 70.2595 230.674 67.5732 227.36 67.5732Z" fill="white"/>
</g>
<g filter="url(#filter2_d_474_6203)">
<path d="M227.36 154.133H66.8198C63.5061 154.133 60.8198 156.819 60.8198 160.133V215.393C60.8198 218.707 63.5061 221.393 66.8198 221.393H227.36C230.674 221.393 233.36 218.707 233.36 215.393V160.133C233.36 156.819 230.674 154.133 227.36 154.133Z" fill="white"/>
</g>
<g filter="url(#filter3_d_474_6203)">
<path d="M227.36 237.693H66.8198C63.5061 237.693 60.8198 240.38 60.8198 243.693V298.953C60.8198 302.267 63.5061 304.953 66.8198 304.953H227.36C230.674 304.953 233.36 302.267 233.36 298.953V243.693C233.36 240.38 230.674 237.693 227.36 237.693Z" fill="white"/>
</g>
<path d="M216.41 23.9323L218.97 16.6523H220.6L223.17 23.9323H221.76L221.16 22.1323H218.42L217.82 23.9323H216.41ZM220.8 21.0823L219.82 18.1523H219.76L218.77 21.0823H220.8Z" fill="white"/>
<path d="M222.92 16.6523H228.73V17.7623H226.48V23.9423H225.17V17.7623H222.92V16.6523Z" fill="white"/>
<path d="M229.52 16.6523H235.33V17.7623H233.08V23.9423H231.77V17.7623H229.52V16.6523Z" fill="white"/>
<path d="M236.43 16.6523H239.16C240.83 16.6523 241.73 17.5923 241.73 18.9823C241.73 19.9723 241.28 20.7023 240.42 21.0523L241.99 23.9423H240.52L239.09 21.2723H237.75V23.9423H236.43V16.6623V16.6523ZM238.97 20.1723C239.95 20.1723 240.39 19.7523 240.39 18.9823C240.39 18.2123 239.95 17.7523 238.96 17.7523H237.75V20.1723H238.96H238.97Z" fill="white"/>
<path d="M244.26 23.9323H242.94V16.6523H244.26V23.9323Z" fill="white"/>
<path d="M245.69 16.6523H248.48C250.06 16.6523 250.84 17.4523 250.84 18.5423C250.84 19.4323 250.28 19.9223 249.57 20.0923V20.1623C250.34 20.2023 251.13 20.8523 251.13 21.9523C251.13 23.0523 250.31 23.9323 248.64 23.9323H245.69V16.6523ZM248.31 19.7523C249 19.7523 249.52 19.3523 249.52 18.7123C249.52 18.1523 249.12 17.7423 248.34 17.7423H247.01V19.7523H248.31ZM248.42 22.8323C249.38 22.8323 249.78 22.4223 249.78 21.8523C249.78 21.2023 249.27 20.7023 248.46 20.7023H247.01V22.8323H248.43H248.42Z" fill="white"/>
<path d="M258.17 16.6523V21.4123C258.17 22.9723 256.99 24.0423 255.22 24.0423C253.45 24.0423 252.26 22.9723 252.26 21.4123V16.6523H253.58V21.3023C253.58 22.2123 254.21 22.8723 255.22 22.8723C256.23 22.8723 256.85 22.2223 256.85 21.3023V16.6523H258.17Z" fill="white"/>
<path d="M259.28 16.6523H265.09V17.7623H262.84V23.9423H261.53V17.7623H259.28V16.6523Z" fill="white"/>
<path d="M267.51 23.9323H266.19V16.6523H267.51V23.9323Z" fill="white"/>
<path d="M272.1 24.0327C270.19 24.0327 268.75 22.6427 268.75 20.2927C268.75 17.9427 270.18 16.5527 272.1 16.5527C274.02 16.5527 275.45 17.9427 275.45 20.2927C275.45 22.6427 274.01 24.0327 272.1 24.0327ZM272.1 17.7327C270.92 17.7327 270.08 18.6327 270.08 20.2927C270.08 21.9527 270.92 22.8527 272.1 22.8527C273.28 22.8527 274.12 21.9527 274.12 20.2927C274.12 18.6327 273.29 17.7327 272.1 17.7327Z" fill="white"/>
<path d="M282.67 23.9323H281.5L278.07 18.9723H278.01V23.9323H276.69V16.6523H277.87L281.3 21.6123H281.36V16.6523H282.67V23.9323Z" fill="white"/>
<path d="M286.58 16.6523H289.31C290.98 16.6523 291.88 17.5923 291.88 18.9823C291.88 19.9723 291.43 20.7023 290.57 21.0523L292.15 23.9423H290.68L289.25 21.2723H287.91V23.9423H286.59V16.6623L286.58 16.6523ZM289.12 20.1723C290.1 20.1723 290.54 19.7523 290.54 18.9823C290.54 18.2123 290.1 17.7523 289.11 17.7523H287.9V20.1723H289.12Z" fill="white"/>
<path d="M293.08 16.6523H297.82V17.7623H294.4V19.7423H297.57V20.8523H294.4V22.8423H297.85V23.9523H293.08V16.6723V16.6523Z" fill="white"/>
<path d="M299.16 16.6523H301.89C303.57 16.6523 304.46 17.6723 304.46 19.0623C304.46 20.4523 303.56 21.4723 301.87 21.4723H300.48V23.9323H299.16V16.6523ZM301.7 20.3923C302.68 20.3923 303.12 19.8423 303.12 19.0623C303.12 18.2823 302.68 17.7523 301.69 17.7523H300.48V20.3823H301.69L301.7 20.3923Z" fill="white"/>
<path d="M308.76 24.0327C306.85 24.0327 305.41 22.6427 305.41 20.2927C305.41 17.9427 306.84 16.5527 308.76 16.5527C310.68 16.5527 312.11 17.9427 312.11 20.2927C312.11 22.6427 310.67 24.0327 308.76 24.0327ZM308.76 17.7327C307.58 17.7327 306.74 18.6327 306.74 20.2927C306.74 21.9527 307.58 22.8527 308.76 22.8527C309.94 22.8527 310.78 21.9527 310.78 20.2927C310.78 18.6327 309.95 17.7327 308.76 17.7327Z" fill="white"/>
<path d="M313.34 16.6523H316.07C317.74 16.6523 318.64 17.5923 318.64 18.9823C318.64 19.9723 318.19 20.7023 317.33 21.0523L318.91 23.9423H317.44L316.01 21.2723H314.67V23.9423H313.35V16.6623L313.34 16.6523ZM315.88 20.1723C316.86 20.1723 317.3 19.7523 317.3 18.9823C317.3 18.2123 316.86 17.7523 315.87 17.7523H314.66V20.1723H315.88Z" fill="white"/>
<path d="M319.53 16.6523H325.34V17.7623H323.09V23.9423H321.78V17.7623H319.53V16.6523Z" fill="white"/>
<g opacity="0.5">
<path d="M116.06 91.6338C115.91 90.7638 115.21 90.2638 114.33 90.2638C113.14 90.2638 112.3 91.1738 112.3 92.8238C112.3 94.4738 113.15 95.3838 114.33 95.3838C115.2 95.3838 115.9 94.9037 116.07 94.0537H117.4C117.2 95.4537 116.05 96.5738 114.32 96.5738C112.4 96.5738 110.99 95.1838 110.99 92.8338C110.99 90.4838 112.42 89.0938 114.32 89.0938C115.93 89.0938 117.18 90.0338 117.4 91.6538H116.07L116.06 91.6338Z" fill="#667A8F"/>
<path d="M121.75 96.5532C119.84 96.5532 118.4 95.1632 118.4 92.8132C118.4 90.4632 119.83 89.0732 121.75 89.0732C123.67 89.0732 125.1 90.4632 125.1 92.8132C125.1 95.1632 123.66 96.5532 121.75 96.5532ZM121.75 90.2532C120.57 90.2532 119.73 91.1532 119.73 92.8132C119.73 94.4732 120.57 95.3732 121.75 95.3732C122.93 95.3732 123.77 94.4732 123.77 92.8132C123.77 91.1532 122.94 90.2532 121.75 90.2532Z" fill="#667A8F"/>
<path d="M132.33 96.4538H131.16L127.73 91.4938H127.67V96.4538H126.35V89.1738H127.53L130.96 94.1338H131.02V89.1738H132.33V96.4538Z" fill="#667A8F"/>
<path d="M136.62 94.9038H136.7L138.59 89.1738H140.04L137.47 96.4538H135.84L133.28 89.1738H134.73L136.62 94.9038Z" fill="#667A8F"/>
<path d="M140.99 89.1738H145.73V90.2838H142.31V92.2638H145.48V93.3738H142.31V95.3638H145.76V96.4738H141V89.1938L140.99 89.1738Z" fill="#667A8F"/>
<path d="M147.06 89.1738H149.79C151.46 89.1738 152.36 90.1138 152.36 91.5038C152.36 92.4938 151.91 93.2238 151.05 93.5738L152.63 96.4638H151.16L149.73 93.7938H148.39V96.4638H147.07V89.1838L147.06 89.1738ZM149.6 92.6938C150.58 92.6938 151.02 92.2738 151.02 91.5038C151.02 90.7338 150.58 90.2738 149.59 90.2738H148.38V92.6938H149.6Z" fill="#667A8F"/>
<path d="M156.15 90.1935C155.33 90.1935 154.83 90.5935 154.83 91.1435C154.83 91.7535 155.47 92.0035 156.07 92.1435L156.75 92.3135C157.85 92.5735 158.89 93.1435 158.89 94.4135C158.89 95.6935 157.87 96.5635 156.13 96.5635C154.39 96.5635 153.36 95.7535 153.3 94.3035H154.6C154.65 95.0635 155.29 95.4335 156.12 95.4335C156.95 95.4335 157.57 95.0135 157.57 94.3935C157.57 93.8235 157.05 93.5835 156.26 93.3835L155.43 93.1735C154.23 92.8635 153.49 92.2635 153.49 91.2135C153.49 89.9235 154.63 89.0635 156.16 89.0635C157.69 89.0635 158.76 89.9335 158.78 91.1635H157.51C157.44 90.5435 156.92 90.1735 156.14 90.1735L156.15 90.1935Z" fill="#667A8F"/>
<path d="M161.38 96.4538H160.06V89.1738H161.38V96.4538Z" fill="#667A8F"/>
<path d="M165.97 96.5532C164.06 96.5532 162.62 95.1632 162.62 92.8132C162.62 90.4632 164.05 89.0732 165.97 89.0732C167.89 89.0732 169.32 90.4632 169.32 92.8132C169.32 95.1632 167.88 96.5532 165.97 96.5532ZM165.97 90.2532C164.79 90.2532 163.95 91.1532 163.95 92.8132C163.95 94.4732 164.79 95.3732 165.97 95.3732C167.15 95.3732 167.99 94.4732 167.99 92.8132C167.99 91.1532 167.16 90.2532 165.97 90.2532Z" fill="#667A8F"/>
<path d="M176.54 96.4538H175.37L171.94 91.4938H171.88V96.4538H170.56V89.1738H171.74L175.17 94.1338H175.23V89.1738H176.54V96.4538Z" fill="#667A8F"/>
<path d="M180.55 90.1935C179.73 90.1935 179.23 90.5935 179.23 91.1435C179.23 91.7535 179.87 92.0035 180.47 92.1435L181.15 92.3135C182.25 92.5735 183.29 93.1435 183.29 94.4135C183.29 95.6935 182.27 96.5635 180.53 96.5635C178.79 96.5635 177.76 95.7535 177.7 94.3035H179C179.05 95.0635 179.69 95.4335 180.52 95.4335C181.35 95.4335 181.97 95.0135 181.97 94.3935C181.97 93.8235 181.45 93.5835 180.66 93.3835L179.83 93.1735C178.63 92.8635 177.89 92.2635 177.89 91.2135C177.89 89.9235 179.03 89.0635 180.56 89.0635C182.09 89.0635 183.16 89.9335 183.18 91.1635H181.91C181.84 90.5435 181.32 90.1735 180.54 90.1735L180.55 90.1935Z" fill="#667A8F"/>
</g>
<path opacity="0.2" d="M171.77 105.953H122.4C120.208 105.953 118.43 107.731 118.43 109.923V109.933C118.43 112.126 120.208 113.903 122.4 113.903H171.77C173.963 113.903 175.74 112.126 175.74 109.933V109.923C175.74 107.731 173.963 105.953 171.77 105.953Z" fill="#667A8F"/>
<g opacity="0.5">
<path d="M134.33 181.463H134.41L136.3 175.733H137.75L135.18 183.013H133.55L130.99 175.733H132.44L134.33 181.463Z" fill="#667A8F"/>
<path d="M137.37 183.013L139.93 175.733H141.56L144.13 183.013H142.72L142.12 181.213H139.38L138.78 183.013H137.37ZM141.76 180.163L140.78 177.233H140.72L139.73 180.163H141.76Z" fill="#667A8F"/>
<path d="M145.08 175.733H146.4V181.913H149.61V183.023H145.08V175.743V175.733Z" fill="#667A8F"/>
<path d="M156.65 175.733V180.493C156.65 182.053 155.47 183.123 153.7 183.123C151.93 183.123 150.74 182.053 150.74 180.493V175.733H152.06V180.383C152.06 181.293 152.69 181.953 153.7 181.953C154.71 181.953 155.33 181.303 155.33 180.383V175.733H156.65Z" fill="#667A8F"/>
<path d="M158.08 175.733H162.82V176.843H159.4V178.823H162.57V179.933H159.4V181.923H162.85V183.033H158.09V175.753L158.08 175.733Z" fill="#667A8F"/>
</g>
<path opacity="0.2" d="M189.15 192.503H105.03C102.837 192.503 101.06 194.28 101.06 196.473V196.483C101.06 198.675 102.837 200.453 105.03 200.453H189.15C191.343 200.453 193.12 198.675 193.12 196.483V196.473C193.12 194.28 191.343 192.503 189.15 192.503Z" fill="#667A8F"/>
<g opacity="0.5">
<path d="M127.86 259.293H132.6V260.403H129.18V262.383H132.35V263.493H129.18V265.483H132.63V266.593H127.87V259.313L127.86 259.293Z" fill="#667A8F"/>
<path d="M136.81 265.023H136.89L138.78 259.293H140.23L137.66 266.573H136.03L133.47 259.293H134.92L136.81 265.023Z" fill="#667A8F"/>
<path d="M141.18 259.293H145.92V260.403H142.5V262.383H145.67V263.493H142.5V265.483H145.95V266.593H141.19V259.313L141.18 259.293Z" fill="#667A8F"/>
<path d="M153.24 266.573H152.07L148.64 261.613H148.58V266.573H147.26V259.293H148.44L151.87 264.253H151.93V259.293H153.24V266.573Z" fill="#667A8F"/>
<path d="M154.34 259.293H160.15V260.403H157.9V266.583H156.59V260.403H154.34V259.293Z" fill="#667A8F"/>
<path d="M163.84 260.313C163.02 260.313 162.52 260.713 162.52 261.263C162.52 261.873 163.16 262.123 163.76 262.263L164.44 262.433C165.54 262.693 166.58 263.263 166.58 264.533C166.58 265.813 165.56 266.683 163.82 266.683C162.08 266.683 161.05 265.873 160.99 264.423H162.29C162.34 265.183 162.98 265.553 163.81 265.553C164.64 265.553 165.26 265.133 165.26 264.513C165.26 263.943 164.74 263.703 163.95 263.503L163.12 263.293C161.92 262.983 161.18 262.383 161.18 261.333C161.18 260.043 162.32 259.183 163.85 259.183C165.38 259.183 166.45 260.053 166.47 261.283H165.2C165.13 260.663 164.61 260.293 163.83 260.293L163.84 260.313Z" fill="#667A8F"/>
</g>
<path opacity="0.2" d="M183.37 276.073H110.8C108.608 276.073 106.83 277.851 106.83 280.043V280.053C106.83 282.246 108.608 284.023 110.8 284.023H183.37C185.563 284.023 187.34 282.246 187.34 280.053V280.043C187.34 277.851 185.563 276.073 183.37 276.073Z" fill="#667A8F"/>
<g filter="url(#filter4_d_474_6203)">
<path d="M580.71 77.1934H200.96C194.333 77.1934 188.96 82.5659 188.96 89.1934V313.943C188.96 320.571 194.333 325.943 200.96 325.943H580.71C587.337 325.943 592.71 320.571 592.71 313.943V89.1934C592.71 82.5659 587.337 77.1934 580.71 77.1934Z" fill="white"/>
</g>
<path d="M248.66 101.203H266.29C268.5 101.203 270.29 102.993 270.29 105.203V288.473H244.66V105.203C244.66 102.993 246.45 101.203 248.66 101.203Z" fill="#64798D"/>
<path d="M297.25 192.503H314.88C317.09 192.503 318.88 194.293 318.88 196.503V288.473H293.25V196.503C293.25 194.293 295.04 192.503 297.25 192.503Z" fill="#64798D"/>
<path d="M345.84 200.453H363.47C365.68 200.453 367.47 202.243 367.47 204.453V288.473H341.84V204.453C341.84 202.243 343.63 200.453 345.84 200.453Z" fill="#64798D"/>
<path d="M394.43 262.843H412.06C414.27 262.843 416.06 264.633 416.06 266.843V288.473H390.43V266.843C390.43 264.633 392.22 262.843 394.43 262.843Z" fill="#00C8B7"/>
<path d="M443.02 271.323H460.65C462.86 271.323 464.65 273.113 464.65 275.323V288.473H439.02V275.323C439.02 273.113 440.81 271.323 443.02 271.323Z" fill="#64798D"/>
<path d="M491.61 275.653H509.24C511.45 275.653 513.24 277.443 513.24 279.653V288.473H487.61V279.653C487.61 277.443 489.4 275.653 491.61 275.653Z" fill="#64798D"/>
<path d="M540.19 280.043H557.82C560.03 280.043 561.82 281.833 561.82 284.043V288.473H536.19V284.043C536.19 281.833 537.98 280.043 540.19 280.043Z" fill="#64798D"/>
<path d="M576.81 288.474H225.62" stroke="#E0E4E8" stroke-miterlimit="10"/>
<path d="M225.62 96.543V288.473" stroke="#E0E4E8" stroke-miterlimit="10"/>
<path d="M223.42 96.543H227.17" stroke="#E0E4E8" stroke-miterlimit="10"/>
<path d="M223.42 144.134H227.17" stroke="#E0E4E8" stroke-miterlimit="10"/>
<path d="M223.42 192.503H227.17" stroke="#E0E4E8" stroke-miterlimit="10"/>
<path d="M223.42 240.443H227.17" stroke="#E0E4E8" stroke-miterlimit="10"/>
<path d="M213.6 99.0831H212.81V95.4831H212.78L211.76 96.1331V95.4031L212.85 94.7031H213.6V99.0831Z" fill="#667A8F"/>
<path d="M215.72 94.7034L217.02 97.8734H217.07L218.37 94.7034H219.34V99.0834H218.58V96.0734H218.54L217.33 99.0634H216.76L215.55 96.0634H215.51V99.0734H214.75V94.6934H215.72V94.7034Z" fill="#667A8F"/>
<path d="M206.84 142.293V142.263H204.68V141.603H207.66V142.283L205.8 145.983H204.98L206.84 142.303V142.293Z" fill="#667A8F"/>
<path d="M208.29 144.783H209.06C209.09 145.143 209.41 145.393 209.8 145.393C210.27 145.393 210.6 145.043 210.6 144.553C210.6 144.053 210.26 143.703 209.78 143.703C209.52 143.703 209.24 143.813 209.09 143.973L208.38 143.853L208.61 141.593H211.15V142.253H209.27L209.14 143.413H209.17C209.33 143.223 209.65 143.083 210 143.083C210.79 143.083 211.38 143.693 211.38 144.533C211.38 145.373 210.74 146.033 209.81 146.033C208.96 146.033 208.32 145.513 208.3 144.783H208.29Z" fill="#667A8F"/>
<path d="M212.01 143.793C212.01 142.363 212.64 141.543 213.7 141.543C214.76 141.543 215.39 142.363 215.39 143.793C215.39 145.223 214.76 146.063 213.7 146.063C212.64 146.063 212.01 145.233 212.01 143.793ZM214.58 143.793C214.58 142.753 214.24 142.203 213.69 142.203C213.14 142.203 212.81 142.753 212.81 143.793C212.81 144.843 213.15 145.393 213.69 145.393C214.23 145.393 214.58 144.843 214.58 143.793Z" fill="#667A8F"/>
<path d="M216.12 141.603H216.91V143.613H216.96L218.67 141.603H219.64L217.95 143.563L219.66 145.973H218.71L217.4 144.093L216.91 144.663V145.963H216.12V141.583V141.603Z" fill="#667A8F"/>
<path d="M204.29 193.103H205.06C205.09 193.463 205.41 193.713 205.8 193.713C206.27 193.713 206.6 193.363 206.6 192.873C206.6 192.373 206.26 192.023 205.78 192.023C205.52 192.023 205.24 192.133 205.09 192.293L204.38 192.173L204.61 189.913H207.15V190.573H205.27L205.14 191.733H205.17C205.33 191.543 205.65 191.403 206 191.403C206.79 191.403 207.38 192.013 207.38 192.853C207.38 193.693 206.74 194.353 205.81 194.353C204.96 194.353 204.32 193.833 204.3 193.103H204.29Z" fill="#667A8F"/>
<path d="M208.01 192.104C208.01 190.674 208.64 189.854 209.7 189.854C210.76 189.854 211.39 190.674 211.39 192.104C211.39 193.534 210.76 194.374 209.7 194.374C208.64 194.374 208.01 193.544 208.01 192.104ZM210.58 192.104C210.58 191.064 210.24 190.514 209.69 190.514C209.14 190.514 208.81 191.064 208.81 192.104C208.81 193.154 209.15 193.704 209.69 193.704C210.23 193.704 210.58 193.154 210.58 192.104Z" fill="#667A8F"/>
<path d="M212.01 192.104C212.01 190.674 212.64 189.854 213.7 189.854C214.76 189.854 215.39 190.674 215.39 192.104C215.39 193.534 214.76 194.374 213.7 194.374C212.64 194.374 212.01 193.544 212.01 192.104ZM214.58 192.104C214.58 191.064 214.24 190.514 213.69 190.514C213.14 190.514 212.81 191.064 212.81 192.104C212.81 193.154 213.15 193.704 213.69 193.704C214.23 193.704 214.58 193.154 214.58 192.104Z" fill="#667A8F"/>
<path d="M216.12 189.914H216.91V191.924H216.96L218.67 189.914H219.64L217.95 191.874L219.66 194.284H218.71L217.4 192.404L216.91 192.974V194.274H216.12V189.894V189.914Z" fill="#667A8F"/>
<path d="M204.56 242.323L206.08 240.833C206.51 240.393 206.73 240.133 206.73 239.773C206.73 239.363 206.42 239.103 206 239.103C205.58 239.103 205.28 239.383 205.28 239.833H204.53C204.53 239.003 205.15 238.463 206.01 238.463C206.87 238.463 207.49 239.003 207.49 239.733C207.49 240.223 207.25 240.623 206.4 241.443L205.65 242.213V242.243H207.56V242.903H204.56V242.333V242.323Z" fill="#667A8F"/>
<path d="M208.3 241.703H209.07C209.1 242.063 209.42 242.313 209.81 242.313C210.28 242.313 210.61 241.963 210.61 241.473C210.61 240.973 210.27 240.623 209.79 240.623C209.53 240.623 209.25 240.733 209.1 240.893L208.39 240.773L208.62 238.513H211.16V239.173H209.28L209.15 240.333H209.18C209.34 240.143 209.66 240.003 210.01 240.003C210.8 240.003 211.39 240.613 211.39 241.453C211.39 242.293 210.75 242.953 209.82 242.953C208.97 242.953 208.33 242.433 208.31 241.703H208.3Z" fill="#667A8F"/>
<path d="M212.01 240.713C212.01 239.283 212.64 238.463 213.7 238.463C214.76 238.463 215.39 239.283 215.39 240.713C215.39 242.143 214.76 242.983 213.7 242.983C212.64 242.983 212.01 242.153 212.01 240.713ZM214.58 240.713C214.58 239.673 214.24 239.123 213.69 239.123C213.14 239.123 212.81 239.673 212.81 240.713C212.81 241.763 213.15 242.313 213.69 242.313C214.23 242.313 214.58 241.763 214.58 240.713Z" fill="#667A8F"/>
<path d="M216.12 238.523H216.91V240.533H216.96L218.67 238.523H219.64L217.95 240.483L219.66 242.893H218.71L217.4 241.013L216.91 241.583V242.883H216.12V238.503V238.523Z" fill="#667A8F"/>
<path d="M257.48 315.644C252.51 315.644 248.48 311.614 248.48 306.644C248.48 301.674 252.51 297.644 257.48 297.644C262.45 297.644 266.48 301.674 266.48 306.644C266.48 311.614 262.45 315.644 257.48 315.644ZM254.65 305.524C254.32 305.164 253.84 304.944 253.31 304.944C252.3 304.944 251.47 305.774 251.47 306.794C251.47 307.814 252.29 308.644 253.31 308.644C253.84 308.644 254.31 308.424 254.65 308.064L258.68 309.954C258.63 310.124 258.6 310.304 258.6 310.494C258.6 311.514 259.42 312.344 260.44 312.344C261.46 312.344 262.28 311.514 262.28 310.494C262.28 309.474 261.46 308.644 260.44 308.644C260.01 308.644 259.61 308.794 259.3 309.044L255.13 307.084C255.14 306.994 255.15 306.894 255.15 306.794C255.15 306.694 255.15 306.594 255.13 306.504L259.3 304.544C259.61 304.794 260.01 304.944 260.44 304.944C261.45 304.944 262.28 304.114 262.28 303.094C262.28 302.074 261.46 301.244 260.44 301.244C259.42 301.244 258.6 302.074 258.6 303.094C258.6 303.284 258.63 303.464 258.68 303.634L254.65 305.524Z" fill="#667A8F"/>
<path d="M306.07 315.644C301.1 315.644 297.07 311.614 297.07 306.644C297.07 301.674 301.1 297.644 306.07 297.644C311.04 297.644 315.07 301.674 315.07 306.644C315.07 311.614 311.04 315.644 306.07 315.644ZM306.2 306.134C306.94 306.134 310.52 304.124 310.52 304.124V303.764C310.52 303.364 310.2 303.044 309.8 303.044H302.59C302.19 303.044 301.87 303.364 301.87 303.764V304.084C301.87 304.084 305.49 306.134 306.2 306.134ZM306.2 307.124C305.5 307.124 301.88 305.204 301.88 305.204V309.524C301.88 309.924 302.2 310.244 302.59 310.244H309.8C310.2 310.244 310.52 309.924 310.52 309.524V305.204C310.52 305.204 306.97 307.124 306.19 307.124H306.2Z" fill="#667A8F"/>
<path d="M345.66 306.644C345.66 301.674 349.69 297.644 354.66 297.644C359.63 297.644 363.66 301.674 363.66 306.644C363.66 311.614 359.63 315.644 354.66 315.644C349.69 315.644 345.66 311.614 345.66 306.644ZM354.65 304.254C355.38 304.254 355.87 304.574 356.16 304.834L357.26 303.764C356.58 303.134 355.71 302.754 354.66 302.754C353.14 302.754 351.82 303.634 351.18 304.904L352.44 305.884C352.76 304.944 353.63 304.264 354.66 304.264L354.65 304.254ZM358.39 306.734C358.39 306.414 358.36 306.184 358.31 305.934H354.65V307.384H356.8C356.76 307.744 356.52 308.284 356 308.654L357.23 309.604C357.97 308.924 358.39 307.924 358.39 306.734ZM352.44 307.414C352.36 307.174 352.31 306.914 352.31 306.644C352.31 306.374 352.36 306.114 352.44 305.874L351.18 304.894C350.92 305.424 350.76 306.014 350.76 306.644C350.76 307.274 350.91 307.864 351.18 308.394L352.44 307.414ZM354.66 310.544C355.71 310.544 356.59 310.194 357.24 309.604L356.01 308.654C355.68 308.884 355.24 309.044 354.66 309.044C353.63 309.044 352.76 308.364 352.44 307.424L351.18 308.404C351.82 309.674 353.13 310.554 354.65 310.554L354.66 310.544Z" fill="#667A8F"/>
<path d="M394.25 306.644C394.25 301.674 398.28 297.644 403.25 297.644C408.22 297.644 412.25 301.674 412.25 306.644C412.25 311.614 408.22 315.644 403.25 315.644C398.28 315.644 394.25 311.614 394.25 306.644Z" fill="#667A8F"/>
<path d="M404.18 311.934V307.034H405.53L405.71 305.344H404.18V304.504C404.18 304.064 404.22 303.824 404.86 303.824H405.7V302.134H404.35C402.73 302.134 402.15 302.954 402.15 304.334V305.344H401.14V307.034H402.15V311.934H404.18Z" fill="white"/>
<path d="M442.83 306.644C442.83 301.674 446.86 297.644 451.83 297.644C456.8 297.644 460.83 301.674 460.83 306.644C460.83 311.614 456.8 315.644 451.83 315.644C446.86 315.644 442.83 311.614 442.83 306.644ZM451.83 301.844C450.53 301.844 450.36 301.844 449.85 301.874C449.34 301.894 448.99 301.974 448.68 302.094C448.36 302.214 448.1 302.384 447.83 302.644C447.56 302.914 447.4 303.174 447.28 303.494C447.16 303.804 447.08 304.144 447.06 304.664C447.04 305.174 447.03 305.344 447.03 306.644C447.03 307.944 447.03 308.114 447.06 308.624C447.08 309.134 447.16 309.484 447.28 309.794C447.4 310.114 447.57 310.374 447.83 310.644C448.1 310.914 448.36 311.074 448.68 311.194C448.99 311.314 449.33 311.394 449.85 311.414C450.36 311.434 450.53 311.444 451.83 311.444C453.13 311.444 453.3 311.444 453.81 311.414C454.32 311.394 454.67 311.314 454.98 311.194C455.3 311.074 455.56 310.904 455.83 310.644C456.1 310.374 456.26 310.114 456.38 309.794C456.5 309.484 456.58 309.144 456.6 308.624C456.62 308.114 456.63 307.944 456.63 306.644C456.63 305.344 456.63 305.174 456.6 304.664C456.58 304.154 456.49 303.804 456.38 303.494C456.26 303.174 456.09 302.914 455.83 302.644C455.56 302.374 455.3 302.214 454.98 302.094C454.67 301.974 454.32 301.894 453.81 301.874C453.3 301.854 453.13 301.844 451.83 301.844Z" fill="#667A8F"/>
<path d="M451.4 302.703C451.53 302.703 451.67 302.703 451.83 302.703C453.11 302.703 453.26 302.703 453.77 302.733C454.24 302.753 454.49 302.833 454.66 302.903C454.88 302.993 455.04 303.093 455.21 303.263C455.38 303.433 455.48 303.593 455.57 303.813C455.64 303.983 455.71 304.233 455.74 304.703C455.76 305.213 455.77 305.363 455.77 306.643C455.77 307.923 455.77 308.073 455.74 308.583C455.72 309.053 455.64 309.303 455.57 309.473C455.48 309.693 455.38 309.853 455.21 310.023C455.04 310.193 454.88 310.293 454.66 310.383C454.49 310.453 454.24 310.523 453.77 310.553C453.26 310.573 453.11 310.583 451.83 310.583C450.55 310.583 450.4 310.583 449.89 310.553C449.42 310.533 449.17 310.453 449 310.383C448.78 310.293 448.62 310.193 448.45 310.023C448.28 309.853 448.18 309.693 448.09 309.473C448.02 309.303 447.95 309.053 447.92 308.583C447.9 308.073 447.89 307.923 447.89 306.643C447.89 305.363 447.89 305.213 447.92 304.703C447.94 304.233 448.02 303.983 448.09 303.813C448.18 303.593 448.28 303.433 448.45 303.263C448.62 303.093 448.78 302.993 449 302.903C449.17 302.833 449.42 302.763 449.89 302.733C450.33 302.713 450.5 302.703 451.4 302.703ZM454.39 303.503C454.07 303.503 453.81 303.763 453.81 304.083C453.81 304.403 454.07 304.663 454.39 304.663C454.71 304.663 454.97 304.403 454.97 304.083C454.97 303.763 454.71 303.503 454.39 303.503ZM451.83 304.173C450.47 304.173 449.36 305.273 449.36 306.643C449.36 308.013 450.46 309.103 451.83 309.103C453.2 309.103 454.29 308.003 454.29 306.643C454.29 305.283 453.19 304.173 451.83 304.173Z" fill="#667A8F"/>
<path d="M451.83 305.044C452.71 305.044 453.43 305.764 453.43 306.644C453.43 307.524 452.71 308.244 451.83 308.244C450.95 308.244 450.23 307.524 450.23 306.644C450.23 305.764 450.95 305.044 451.83 305.044Z" fill="#667A8F"/>
<path d="M509.42 306.644C509.42 311.614 505.39 315.644 500.42 315.644C495.45 315.644 491.42 311.614 491.42 306.644C491.42 301.674 495.45 297.644 500.42 297.644C505.39 297.644 509.42 301.674 509.42 306.644ZM500.42 301.244C497.44 301.244 495.02 303.664 495.02 306.644C495.02 309.624 497.44 312.044 500.42 312.044C503.4 312.044 505.82 309.624 505.82 306.644C505.82 303.664 503.4 301.244 500.42 301.244Z" fill="#667A8F"/>
<path d="M495.62 307.734C495.62 307.734 495.68 307.754 495.73 307.804C495.8 307.864 495.84 307.894 495.93 307.934C496.02 307.974 496.06 308.024 496.17 308.084C496.28 308.144 496.24 308.104 496.39 308.274C496.54 308.444 496.52 308.444 496.56 308.534C496.6 308.624 496.65 308.724 496.69 308.774C496.73 308.834 496.84 308.864 496.89 308.904C496.95 308.944 497.04 308.974 497.09 308.974C497.14 308.974 497.31 309.144 497.41 309.164C497.5 309.184 497.5 309.374 497.5 309.374L497.41 309.634L497.34 309.914L497.41 310.134C497.41 310.134 497.3 310.224 497.22 310.224C497.15 310.224 497.13 310.264 497.05 310.244C496.34 309.584 495.83 308.714 495.6 307.734H495.62ZM503.87 308.844C503.87 308.904 503.85 309.044 503.83 309.124C503.81 309.194 503.77 309.324 503.76 309.404C503.74 309.474 503.65 309.624 503.59 309.664C503.53 309.704 503.44 309.814 503.39 309.834C503.33 309.854 503.3 309.704 503.32 309.634C503.34 309.564 503.43 309.354 503.43 309.354C503.43 309.354 503.45 309.244 503.47 309.164C503.49 309.094 503.71 308.994 503.71 308.994L503.86 308.714C503.86 308.714 503.88 308.784 503.88 308.844H503.87ZM501.73 305.204L501.92 305.264C501.92 305.264 502.38 305.354 502.46 305.414C502.53 305.474 502.66 305.504 502.7 305.564C502.74 305.624 502.87 305.784 502.89 305.844C502.91 305.904 503 306.104 503.02 306.174C503.04 306.244 503.09 306.434 503.15 306.524C503.21 306.614 503.52 307.024 503.63 307.214L503.97 307.154C503.97 307.154 503.93 307.324 503.9 307.374C503.86 307.434 503.75 307.574 503.7 307.654C503.64 307.724 503.57 307.844 503.46 307.934C503.35 308.024 503.35 308.124 503.29 308.194C503.23 308.264 503.16 308.434 503.16 308.434C503.16 308.434 503.2 308.804 503.22 308.884C503.24 308.954 503.09 309.164 503.09 309.164L502.92 309.334L502.7 309.634L502.72 309.914C502.72 309.914 502.55 310.044 502.46 310.114C502.37 310.184 502.38 310.244 502.31 310.314C502.24 310.384 501.95 310.514 501.87 310.534C501.8 310.554 501.39 310.604 501.39 310.604V310.254C501.39 310.254 501.33 310.034 501.27 309.954C501.21 309.884 501.24 309.764 501.15 309.674C501.06 309.584 501.02 309.504 501 309.454C500.98 309.394 501.02 309.234 501.02 309.234C501.02 309.234 501.1 309.034 501.13 308.954C501.17 308.884 501.13 308.764 501.09 308.694C501.05 308.624 501.03 308.434 501.03 308.374C501.03 308.314 500.88 308.224 500.82 308.174C500.76 308.124 500.78 308.044 500.78 307.974C500.78 307.904 500.72 307.734 500.74 307.604C500.76 307.474 500.57 307.564 500.46 307.604C500.35 307.644 500.27 307.564 500.27 307.454C500.27 307.344 500.07 307.434 499.94 307.514C499.81 307.584 499.66 307.584 499.51 307.644C499.36 307.704 499.29 307.584 499.29 307.584C499.29 307.584 499.16 307.474 499.07 307.414C498.98 307.354 498.88 307.244 498.81 307.154C498.74 307.064 498.55 306.784 498.53 306.674C498.51 306.564 498.53 306.484 498.53 306.354C498.53 306.224 498.53 306.154 498.55 306.054C498.57 305.964 498.62 305.854 498.68 305.754C498.74 305.664 498.94 305.554 499 305.514C499.06 305.474 499.19 305.364 499.19 305.294C499.19 305.224 499.26 305.184 499.3 305.104C499.34 305.034 499.47 304.844 499.64 304.914C499.64 304.914 499.79 304.894 499.84 304.874C499.9 304.854 500.04 304.804 500.12 304.764C500.19 304.724 500.38 304.714 500.38 304.714C500.38 304.714 500.53 304.774 500.58 304.774C500.63 304.774 500.82 304.744 500.82 304.744C500.82 304.744 500.9 305.014 500.9 305.074C500.9 305.134 500.96 305.184 501.05 305.224C501.14 305.264 501.57 305.354 501.76 305.204H501.73ZM499.31 303.454L499.24 303.344L499.31 303.174L499.49 303.244V302.914L499.66 302.824L499.8 303.024L500.02 303.264L499.87 303.374L499.48 303.444V303.244L499.3 303.444L499.31 303.454ZM497.08 303.024C497.53 302.604 498.07 302.274 498.66 302.044C498.6 302.114 498.53 302.194 498.53 302.194C498.53 302.194 498.4 302.194 498.16 302.454C497.92 302.714 497.97 302.644 497.92 302.714C497.86 302.784 497.88 302.804 497.75 302.904C497.62 302.994 497.56 303.104 497.56 303.104L497.36 303.174L497.19 303.104C497.19 303.104 497.04 303.164 497.06 303.084C497.06 303.064 497.07 303.044 497.08 303.024ZM496.48 303.734C496.48 303.804 496.38 303.824 496.48 304.014C496.61 304.254 496.5 304.364 496.5 304.364C496.5 304.364 496.18 304.584 496.13 304.624C496.07 304.664 495.93 304.864 496.02 304.814C496.11 304.754 496.22 304.704 496.13 304.854C496.04 305.004 495.87 305.244 495.83 305.334C495.79 305.424 495.61 305.654 495.61 305.764C495.61 305.874 495.54 306.104 495.55 306.194C495.56 306.254 495.52 306.454 495.49 306.524C495.52 305.474 495.87 304.514 496.45 303.724C496.47 303.724 496.48 303.724 496.48 303.724V303.734ZM505.35 306.644C505.35 306.734 505.35 306.834 505.34 306.924C505.31 306.834 505.25 306.724 505.24 306.674C505.22 306.604 505.11 306.334 505.11 306.334C505.11 306.334 505 306.184 504.92 306.144C504.85 306.104 504.79 306.014 504.66 305.944C504.53 305.874 504.47 305.834 504.36 305.834C504.25 305.834 504.14 305.684 504.01 305.614C503.88 305.544 503.86 305.574 503.86 305.574C503.86 305.574 504.01 305.794 504.01 305.854C504.01 305.914 504.18 306.004 504.35 305.964C504.35 305.964 504.46 306.164 504.52 306.224C504.58 306.284 504.5 306.334 504.39 306.414C504.28 306.484 504.3 306.474 504.24 306.524C504.18 306.584 504 306.674 503.94 306.714C503.88 306.754 503.66 306.864 503.55 306.754C503.5 306.704 503.51 306.584 503.48 306.514C503.44 306.444 503.05 305.864 502.87 305.604C502.84 305.554 502.76 305.414 502.7 305.384C502.64 305.344 502.83 305.344 502.83 305.344C502.83 305.344 502.83 305.214 502.81 305.124C502.79 305.034 502.83 304.904 502.83 304.904C502.83 304.904 502.64 305.014 502.59 305.054C502.53 305.094 502.48 304.984 502.4 304.884C502.33 304.794 502.25 304.684 502.23 304.584C502.21 304.494 502.32 304.454 502.32 304.454L502.49 304.364C502.49 304.364 502.69 304.324 502.83 304.344C502.96 304.364 503.16 304.384 503.16 304.384C503.16 304.384 503.22 304.254 503.14 304.194C503.07 304.134 502.9 304.044 502.82 304.064C502.75 304.084 502.86 303.974 502.95 303.894L502.74 303.854C502.74 303.854 502.55 303.944 502.5 303.964C502.44 303.984 502.35 304.024 502.27 304.114C502.2 304.204 502.3 304.334 502.23 304.374C502.16 304.414 502.11 304.434 502.05 304.444C501.99 304.464 501.82 304.444 501.82 304.444C501.63 304.444 501.75 304.624 501.8 304.684L501.65 304.504L501.54 304.244C501.54 304.244 501.38 304.134 501.31 304.094C501.24 304.054 501.01 303.924 501.01 303.924L501.03 304.094L501.25 304.314H501.27L501.38 304.464L501.13 304.484V304.334C500.9 304.274 500.96 304.224 500.93 304.204C500.87 304.164 500.75 304.074 500.75 304.074C500.75 304.074 500.53 304.114 500.48 304.134C500.42 304.154 500.41 304.204 500.3 304.244C500.19 304.284 500.14 304.334 500.1 304.394C500.06 304.454 499.94 304.614 499.87 304.694C499.8 304.764 499.66 304.754 499.6 304.754C499.54 304.754 499.28 304.684 499.28 304.684V304.364C499.28 304.364 499.32 304.184 499.3 304.134L499.46 304.104L499.73 304.044L499.81 303.984L499.92 303.834C499.92 303.834 499.79 303.744 499.88 303.614C499.92 303.554 500.09 303.544 500.16 303.484C500.23 303.424 500.35 303.394 500.35 303.394C500.35 303.394 500.48 303.284 500.61 303.154C500.61 303.154 500.7 303.094 500.81 303.064C500.81 303.064 501.13 303.344 501.18 303.344C501.23 303.344 501.44 303.214 501.44 303.214C501.44 303.214 501.5 303.044 501.48 302.994C501.46 302.934 501.37 302.754 501.37 302.754C501.37 302.754 501.31 302.844 501.26 302.924C501.21 303.004 501.17 303.094 501.17 303.094C501.17 303.094 500.91 303.074 500.89 303.024C500.87 302.964 500.83 302.874 500.82 302.824C500.8 302.764 500.65 302.774 500.54 302.804C500.43 302.844 500.56 302.604 500.56 302.604C500.56 302.604 500.67 302.464 500.75 302.464C500.83 302.464 500.99 302.364 501.07 302.354C501.14 302.334 501.37 302.254 501.46 302.254C501.55 302.254 501.66 302.294 501.72 302.294H502L502.39 302.264C502.39 302.264 502.73 302.384 502.61 302.464C502.61 302.464 502.74 302.544 502.8 302.604C502.85 302.654 502.99 302.554 503.06 302.514C504.45 303.384 505.38 304.934 505.38 306.694L505.35 306.644Z" fill="#667A8F"/>
<path d="M549.01 297.644C544.04 297.644 540.01 301.674 540.01 306.644C540.01 311.614 544.04 315.644 549.01 315.644C553.98 315.644 558.01 311.614 558.01 306.644C558.01 301.674 553.98 297.644 549.01 297.644ZM554.42 307.084C554.42 307.634 553.97 308.084 553.42 308.084H544.6C544.05 308.084 543.6 307.634 543.6 307.084V306.214C543.6 305.664 544.05 305.214 544.6 305.214H553.42C553.97 305.214 554.42 305.664 554.42 306.214V307.084Z" fill="#667A8F"/>
<g filter="url(#filter5_d_474_6203)">
<path d="M487.89 251.444H407.19L402.75 257.444L398 251.444H387.7C384.39 251.444 381.7 248.754 381.7 245.444V187.014C381.7 183.704 384.39 181.014 387.7 181.014H487.89C491.2 181.014 493.89 183.704 493.89 187.014V245.444C493.89 248.754 491.2 251.444 487.89 251.444Z" fill="white"/>
</g>
<path d="M393.57 197.134C393.57 192.164 397.6 188.134 402.57 188.134C407.54 188.134 411.57 192.164 411.57 197.134C411.57 202.104 407.54 206.134 402.57 206.134C397.6 206.134 393.57 202.104 393.57 197.134Z" fill="#425892"/>
<path d="M403.51 202.434V197.534H404.86L405.04 195.844H403.51V195.004C403.51 194.564 403.55 194.324 404.19 194.324H405.03V192.634H403.68C402.06 192.634 401.48 193.454 401.48 194.834V195.844H400.47V197.534H401.48V202.434H403.51Z" fill="white"/>
<path d="M396.73 220.314H396.81L398.7 214.584H400.15L397.58 221.864H395.95L393.39 214.584H394.84L396.73 220.314Z" fill="#667A8F"/>
<path d="M399.77 221.864L402.33 214.584H403.96L406.53 221.864H405.12L404.52 220.064H401.78L401.18 221.864H399.77ZM404.16 219.014L403.18 216.084H403.12L402.13 219.014H404.16Z" fill="#667A8F"/>
<path d="M407.48 214.584H408.8V220.764H412.01V221.874H407.48V214.594V214.584Z" fill="#667A8F"/>
<path d="M419.05 214.584V219.344C419.05 220.904 417.87 221.974 416.1 221.974C414.33 221.974 413.14 220.904 413.14 219.344V214.584H414.46V219.234C414.46 220.144 415.09 220.804 416.1 220.804C417.11 220.804 417.73 220.154 417.73 219.234V214.584H419.05Z" fill="#667A8F"/>
<path d="M420.48 214.584H425.22V215.694H421.8V217.674H424.97V218.784H421.8V220.774H425.25V221.884H420.49V214.604L420.48 214.584Z" fill="#667A8F"/>
<g opacity="0.5">
<path d="M400.13 235.154H396.65C396.65 235.314 396.64 235.484 396.64 235.664C396.64 235.844 396.64 235.994 396.65 236.154H399.69L399.18 237.234H396.81C397.17 238.594 398.03 239.234 399.15 239.234C400.03 239.234 400.7 238.834 401.13 238.484L401.84 239.964C401.13 240.584 400.18 240.894 399.15 240.894C397.04 240.894 395.44 239.554 394.95 237.234H393.53L393.92 236.154H394.81C394.81 235.994 394.8 235.834 394.8 235.664C394.8 235.494 394.8 235.324 394.81 235.154H393.53L393.92 234.094H394.95C395.44 231.774 397.03 230.414 399.15 230.414C400.21 230.414 401.13 230.764 401.87 231.384L401.17 232.864C400.69 232.484 400.02 232.074 399.15 232.074C398.04 232.074 397.17 232.734 396.81 234.084H400.61L400.13 235.144V235.154Z" fill="#667A8F"/>
<path d="M411.17 240.745H409.32V232.355H409.26L406.88 233.875V232.185L409.41 230.555H411.17V240.745Z" fill="#667A8F"/>
<path d="M413.68 237.974H415.55C415.59 238.804 416.39 239.334 417.41 239.334C418.5 239.334 419.28 238.714 419.28 237.814C419.28 236.894 418.52 236.244 417.23 236.244H416.33V234.824H417.23C418.28 234.824 419.02 234.234 419.02 233.344C419.02 232.484 418.39 231.914 417.44 231.914C416.49 231.914 415.7 232.444 415.67 233.304H413.89C413.93 231.594 415.46 230.414 417.44 230.414C419.42 230.414 420.8 231.684 420.79 233.234C420.79 234.374 420.05 235.194 418.95 235.434V235.514C420.38 235.714 421.17 236.634 421.17 237.904C421.17 239.624 419.59 240.874 417.41 240.874C415.23 240.874 413.72 239.684 413.67 237.964L413.68 237.974Z" fill="#667A8F"/>
<path d="M422.72 235.654C422.72 232.324 424.2 230.414 426.64 230.414C429.08 230.414 430.56 232.334 430.56 235.654C430.56 238.974 429.09 240.934 426.64 240.934C424.18 240.934 422.72 238.994 422.72 235.654ZM428.71 235.654C428.71 233.224 427.91 231.944 426.65 231.944C425.39 231.944 424.6 233.224 424.59 235.654C424.59 238.104 425.38 239.374 426.65 239.374C427.92 239.374 428.71 238.104 428.71 235.654Z" fill="#667A8F"/>
<path d="M443.12 235.334C443.12 238.844 441.57 240.884 439.13 240.884C437.2 240.884 435.87 239.654 435.66 237.964H437.48C437.66 238.774 438.26 239.284 439.14 239.284C440.55 239.284 441.34 237.984 441.34 235.804H441.27C440.78 236.684 439.82 237.214 438.72 237.214C436.93 237.214 435.57 235.824 435.56 233.904C435.56 231.914 437.03 230.394 439.24 230.414C441.2 230.424 443.12 231.624 443.13 235.334H443.12ZM437.34 233.864C437.34 234.954 438.13 235.814 439.21 235.814C440.29 235.814 441.13 234.904 441.12 233.854C441.12 232.814 440.32 231.914 439.23 231.914C438.14 231.914 437.34 232.784 437.34 233.874V233.864Z" fill="#667A8F"/>
<path d="M444.59 238.014C444.59 236.744 445.51 235.674 446.72 235.474V235.404C445.67 235.174 444.96 234.254 444.97 233.144C444.97 231.574 446.41 230.414 448.38 230.414C450.35 230.414 451.78 231.574 451.79 233.144C451.79 234.244 451.07 235.174 450.04 235.404V235.474C451.22 235.674 452.16 236.734 452.17 238.014C452.17 239.674 450.59 240.884 448.38 240.884C446.17 240.884 444.59 239.674 444.59 238.014ZM450.27 237.884C450.27 236.914 449.46 236.214 448.38 236.214C447.3 236.214 446.48 236.904 446.49 237.884C446.49 238.824 447.23 239.464 448.38 239.464C449.53 239.464 450.26 238.824 450.27 237.884ZM449.99 233.324C449.99 232.444 449.33 231.864 448.38 231.864C447.43 231.864 446.76 232.454 446.77 233.324C446.77 234.214 447.44 234.824 448.38 234.824C449.32 234.824 449.98 234.214 449.99 233.324Z" fill="#667A8F"/>
<path d="M453.62 237.385L457.94 230.555H460.24V237.335H461.54V238.855H460.24V240.745H458.48V238.855H453.62V237.385ZM458.5 232.645H458.42L455.51 237.255V237.335H458.5V232.645Z" fill="#667A8F"/>
</g>
</g>
<defs>
<filter id="filter0_d_474_6203" x="-6.91992" y="-39.7168" width="574.92" height="428.69" filterUnits="userSpaceOnUse" color-interpolation-filters="sRGB">
<feFlood flood-opacity="0" result="BackgroundImageFix"/>
<feColorMatrix in="SourceAlpha" type="matrix" values="0 0 0 0 0 0 0 0 0 0 0 0 0 0 0 0 0 0 127 0" result="hardAlpha"/>
<feOffset/>
<feGaussianBlur stdDeviation="20"/>
<feColorMatrix type="matrix" values="0 0 0 0 0 0 0 0 0 0.0941176 0 0 0 0 0.188235 0 0 0 0.15 0"/>
<feBlend mode="normal" in2="BackgroundImageFix" result="effect1_dropShadow_474_6203"/>
<feBlend mode="normal" in="SourceGraphic" in2="effect1_dropShadow_474_6203" result="shape"/>
</filter>
<filter id="filter1_d_474_6203" x="20.8198" y="27.5732" width="252.54" height="147.26" filterUnits="userSpaceOnUse" color-interpolation-filters="sRGB">
<feFlood flood-opacity="0" result="BackgroundImageFix"/>
<feColorMatrix in="SourceAlpha" type="matrix" values="0 0 0 0 0 0 0 0 0 0 0 0 0 0 0 0 0 0 127 0" result="hardAlpha"/>
<feOffset/>
<feGaussianBlur stdDeviation="20"/>
<feColorMatrix type="matrix" values="0 0 0 0 0 0 0 0 0 0.0941176 0 0 0 0 0.188235 0 0 0 0.15 0"/>
<feBlend mode="normal" in2="BackgroundImageFix" result="effect1_dropShadow_474_6203"/>
<feBlend mode="normal" in="SourceGraphic" in2="effect1_dropShadow_474_6203" result="shape"/>
</filter>
<filter id="filter2_d_474_6203" x="20.8198" y="114.133" width="252.54" height="147.26" filterUnits="userSpaceOnUse" color-interpolation-filters="sRGB">
<feFlood flood-opacity="0" result="BackgroundImageFix"/>
<feColorMatrix in="SourceAlpha" type="matrix" values="0 0 0 0 0 0 0 0 0 0 0 0 0 0 0 0 0 0 127 0" result="hardAlpha"/>
<feOffset/>
<feGaussianBlur stdDeviation="20"/>
<feColorMatrix type="matrix" values="0 0 0 0 0 0 0 0 0 0.0941176 0 0 0 0 0.188235 0 0 0 0.15 0"/>
<feBlend mode="normal" in2="BackgroundImageFix" result="effect1_dropShadow_474_6203"/>
<feBlend mode="normal" in="SourceGraphic" in2="effect1_dropShadow_474_6203" result="shape"/>
</filter>
<filter id="filter3_d_474_6203" x="20.8198" y="197.693" width="252.54" height="147.26" filterUnits="userSpaceOnUse" color-interpolation-filters="sRGB">
<feFlood flood-opacity="0" result="BackgroundImageFix"/>
<feColorMatrix in="SourceAlpha" type="matrix" values="0 0 0 0 0 0 0 0 0 0 0 0 0 0 0 0 0 0 127 0" result="hardAlpha"/>
<feOffset/>
<feGaussianBlur stdDeviation="20"/>
<feColorMatrix type="matrix" values="0 0 0 0 0 0 0 0 0 0.0941176 0 0 0 0 0.188235 0 0 0 0.15 0"/>
<feBlend mode="normal" in2="BackgroundImageFix" result="effect1_dropShadow_474_6203"/>
<feBlend mode="normal" in="SourceGraphic" in2="effect1_dropShadow_474_6203" result="shape"/>
</filter>
<filter id="filter4_d_474_6203" x="148.96" y="37.1934" width="483.75" height="328.75" filterUnits="userSpaceOnUse" color-interpolation-filters="sRGB">
<feFlood flood-opacity="0" result="BackgroundImageFix"/>
<feColorMatrix in="SourceAlpha" type="matrix" values="0 0 0 0 0 0 0 0 0 0 0 0 0 0 0 0 0 0 127 0" result="hardAlpha"/>
<feOffset/>
<feGaussianBlur stdDeviation="20"/>
<feColorMatrix type="matrix" values="0 0 0 0 0 0 0 0 0 0.0941176 0 0 0 0 0.188235 0 0 0 0.15 0"/>
<feBlend mode="normal" in2="BackgroundImageFix" result="effect1_dropShadow_474_6203"/>
<feBlend mode="normal" in="SourceGraphic" in2="effect1_dropShadow_474_6203" result="shape"/>
</filter>
<filter id="filter5_d_474_6203" x="341.7" y="141.014" width="192.19" height="156.43" filterUnits="userSpaceOnUse" color-interpolation-filters="sRGB">
<feFlood flood-opacity="0" result="BackgroundImageFix"/>
<feColorMatrix in="SourceAlpha" type="matrix" values="0 0 0 0 0 0 0 0 0 0 0 0 0 0 0 0 0 0 127 0" result="hardAlpha"/>
<feOffset/>
<feGaussianBlur stdDeviation="20"/>
<feColorMatrix type="matrix" values="0 0 0 0 0 0 0 0 0 0.0941176 0 0 0 0 0.188235 0 0 0 0.15 0"/>
<feBlend mode="normal" in2="BackgroundImageFix" result="effect1_dropShadow_474_6203"/>
<feBlend mode="normal" in="SourceGraphic" in2="effect1_dropShadow_474_6203" result="shape"/>
</filter>
<clipPath id="clip0_474_6203">
<rect width="653" height="385.68" fill="white" transform="translate(0 0.283203)"/>
</clipPath>
</defs>
</svg>
